<svg width="873" height="1002" version="1.1" xmlns="http://www.w3.org/2000/svg"
     desc="Created with imagetracer.js version 1.2.6">
    <path fill="rgb(53,119,191)" stroke="rgb(53,119,191)" stroke-width="1" opacity="1"
          d="M 170.5 5 L 189 7.5 L 181.5 8 L 170.5 6 L 167.5 10 L 167 8.5 L 168 6 L 170.5 5 Z "/>
    <path fill="rgb(53,119,191)" stroke="rgb(53,119,191)" stroke-width="1" opacity="1"
          d="M 191.5 8 L 207 9.5 L 197.5 10 Q 196.3 7.8 191.5 9 L 191.5 8 Z "/>
    <path fill="rgb(53,119,191)" stroke="rgb(53,119,191)" stroke-width="1" opacity="1"
          d="M 208.5 10 L 217 11 L 218 13.5 L 218 94.5 L 217 97 L 197.5 104 L 197.5 103 L 212.5 98 L 217 94.5 L 217 13.5 L 215.5 12 L 208.5 11 L 208.5 10 Z "/>
    <path fill="rgb(53,119,191)" stroke="rgb(53,119,191)" stroke-width="1" opacity="1"
          d="M 168.5 12 L 170 19.5 L 169 19.5 L 168.5 12 Z "/>
    <path fill="rgb(53,119,191)" stroke="rgb(53,119,191)" stroke-width="1" opacity="1"
          d="M 170.5 22 L 177 49.5 L 177 54.5 L 179 58.5 L 179 63.5 L 185 91.5 L 184 91.5 L 178 59.5 L 176 54.5 L 176 49.5 L 171 30.5 L 170.5 22 Z "/>
    <path fill="rgb(53,119,191)" stroke="rgb(53,119,191)" stroke-width="1" opacity="1"
          d="M 33.5 37 L 144 128.5 L 143 131 L 134.5 135 L 113.5 150 L 111.5 150 L 105 146.5 L 106.5 146 L 113.5 149 L 142 129.5 L 140.5 126 L 35.5 39 L 33 39 L 27.5 65 L 27 61.5 L 31 41.5 L 33.5 37 Z "/>
    <path fill="rgb(53,119,191)" stroke="rgb(53,119,191)" stroke-width="1" opacity="1"
          d="M 26.5 66 L 27 70.5 L 25.5 74 L 25 71.5 L 26.5 66 Z "/>
    <path fill="rgb(53,119,191)" stroke="rgb(53,119,191)" stroke-width="1" opacity="1"
          d="M 24.5 76 L 25 79.5 L 23.5 85 L 23 80.5 L 24.5 76 Z "/>
    <path fill="rgb(53,119,191)" stroke="rgb(53,119,191)" stroke-width="1" opacity="1"
          d="M 22.5 86 L 23 88.5 L 22 88.5 L 22.5 86 Z "/>
    <path fill="rgb(53,119,191)" stroke="rgb(53,119,191)" stroke-width="1" opacity="1"
          d="M 408.5 86 L 439 86.5 L 408.5 87 L 408.5 86 Z "/>
    <path fill="rgb(53,119,191)" stroke="rgb(53,119,191)" stroke-width="1" opacity="1"
          d="M 380.5 87 L 399 87.5 L 369.5 89 L 369.5 88 L 379.5 88 L 380.5 87 Z "/>
    <path fill="rgb(53,119,191)" stroke="rgb(53,119,191)" stroke-width="1" opacity="1"
          d="M 450.5 87 L 468.5 87 L 469.5 88 L 480 88.5 L 467.5 89 L 466.5 88 L 450.5 88 L 450.5 87 Z "/>
    <path fill="rgb(53,119,191)" stroke="rgb(53,119,191)" stroke-width="1" opacity="1"
          d="M 356.5 89 L 363 89.5 L 338.5 92 L 338.5 91 L 355.5 90 L 356.5 89 Z "/>
    <path fill="rgb(53,119,191)" stroke="rgb(53,119,191)" stroke-width="1" opacity="1"
          d="M 486.5 89 L 504.5 90 L 511 91.5 L 505.5 92 L 504.5 91 L 486.5 90 L 486.5 89 Z "/>
    <path fill="rgb(53,119,191)" stroke="rgb(53,119,191)" stroke-width="1" opacity="1"
          d="M 21.5 90 L 22 95.5 L 20.5 99 L 20 95.5 L 21.5 90 Z "/>
    <path fill="rgb(53,119,191)" stroke="rgb(53,119,191)" stroke-width="1" opacity="1"
          d="M 328.5 92 L 335 92.5 L 322.5 94 L 322.5 93 Q 327.2 94.3 328.5 92 Z "/>
    <path fill="rgb(53,119,191)" stroke="rgb(53,119,191)" stroke-width="1" opacity="1"
          d="M 514.5 92 L 527 93.5 L 520.5 94 Q 519.3 91.7 514.5 93 L 514.5 92 Z "/>
    <path fill="rgb(53,119,191)" stroke="rgb(53,119,191)" stroke-width="1" opacity="1"
          d="M 185.5 94 L 187 101.5 L 186 101.5 L 185.5 94 Z "/>
    <path fill="rgb(53,119,191)" stroke="rgb(53,119,191)" stroke-width="1" opacity="1"
          d="M 316.5 94 L 321 94.5 L 293.5 99 L 293.5 98 L 316.5 94 Z "/>
    <path fill="rgb(53,119,191)" stroke="rgb(53,119,191)" stroke-width="1" opacity="1"
          d="M 529.5 94 L 540.5 95 L 545.5 97 L 556 98.5 L 551.5 99 L 540.5 96 L 529.5 95 L 529.5 94 Z "/>
    <path fill="rgb(53,119,191)" stroke="rgb(53,119,191)" stroke-width="1" opacity="1"
          d="M 288.5 99 L 292 99.5 L 283.5 101 L 283.5 100 L 288.5 99 Z "/>
    <path fill="rgb(53,119,191)" stroke="rgb(53,119,191)" stroke-width="1" opacity="1"
          d="M 557.5 99 L 566.5 100 L 579 103.5 L 576.5 104 L 566.5 101 L 557.5 100 L 557.5 99 Z "/>
    <path fill="rgb(53,119,191)" stroke="rgb(53,119,191)" stroke-width="1" opacity="1"
          d="M 19.5 100 L 20 104.5 L 19 106.5 L 44 118.5 L 42.5 119 L 20.5 109 L 18 106.5 L 19.5 100 Z "/>
    <path fill="rgb(53,119,191)" stroke="rgb(53,119,191)" stroke-width="1" opacity="1"
          d="M 279.5 101 L 282 101.5 L 270.5 104 L 270.5 103 L 279.5 101 Z "/>
    <path fill="rgb(53,119,191)" stroke="rgb(53,119,191)" stroke-width="1" opacity="1"
          d="M 187.5 103 L 188 106 L 195.5 104 L 195.5 105 L 188.5 107 Q 186 106 187.5 103 Z "/>
    <path fill="rgb(53,119,191)" stroke="rgb(53,119,191)" stroke-width="1" opacity="1"
          d="M 266.5 104 L 269 104.5 L 262.5 106 L 262.5 105 L 266.5 104 Z "/>
    <path fill="rgb(53,119,191)" stroke="rgb(53,119,191)" stroke-width="1" opacity="1"
          d="M 580.5 104 L 587 105.5 L 583.5 106 L 580.5 105 L 580.5 104 Z "/>
    <path fill="rgb(53,119,191)" stroke="rgb(53,119,191)" stroke-width="1" opacity="1"
          d="M 258.5 106 L 261 106.5 L 251.5 109 L 251.5 108 L 258.5 106 Z "/>
    <path fill="rgb(53,119,191)" stroke="rgb(53,119,191)" stroke-width="1" opacity="1"
          d="M 588.5 106 L 598 108.5 L 595.5 109 L 588.5 107 L 588.5 106 Z "/>
    <path fill="rgb(53,119,191)" stroke="rgb(53,119,191)" stroke-width="1" opacity="1"
          d="M 247.5 109 L 250 109.5 L 234.5 114 L 234.5 113 L 247.5 109 Z "/>
    <path fill="rgb(53,119,191)" stroke="rgb(53,119,191)" stroke-width="1" opacity="1"
          d="M 599.5 109 L 615 113.5 L 612.5 114 L 599.5 110 L 599.5 109 Z "/>
    <path fill="rgb(53,119,191)" stroke="rgb(53,119,191)" stroke-width="1" opacity="1"
          d="M 230.5 114 L 233 114.5 L 228.5 116 L 228.5 115 L 230.5 114 Z "/>
    <path fill="rgb(53,119,191)" stroke="rgb(53,119,191)" stroke-width="1" opacity="1"
          d="M 616.5 114 L 643 123.5 L 641.5 124 L 627.5 118 L 618.5 116 L 616.5 114 Z "/>
    <path fill="rgb(53,119,191)" stroke="rgb(53,119,191)" stroke-width="1" opacity="1"
          d="M 225.5 116 L 227 116.5 L 206.5 124 L 206.5 123 L 225.5 116 Z "/>
    <path fill="rgb(53,119,191)" stroke="rgb(53,119,191)" stroke-width="1" opacity="1"
          d="M 45.5 119 L 55 123.5 L 53.5 124 L 46.5 121 L 45.5 119 Z "/>
    <path fill="rgb(53,119,191)" stroke="rgb(53,119,191)" stroke-width="1" opacity="1"
          d="M 56.5 124 L 66 128.5 L 64.5 129 L 56.5 125 L 56.5 124 Z "/>
    <path fill="rgb(53,119,191)" stroke="rgb(53,119,191)" stroke-width="1" opacity="1"
          d="M 203.5 124 L 205 124.5 L 201.5 126 L 201.5 125 L 203.5 124 Z "/>
    <path fill="rgb(53,119,191)" stroke="rgb(53,119,191)" stroke-width="1" opacity="1"
          d="M 644.5 124 Q 669.4 132.6 690 145.5 L 688.5 146 Q 668.6 133.4 644.5 125 L 644.5 124 Z "/>
    <path fill="rgb(53,119,191)" stroke="rgb(53,119,191)" stroke-width="1" opacity="1"
          d="M 198.5 126 L 200 126.5 Q 134.6 152.1 91 199.5 L 67.5 231 L 68 229.5 Q 85.6 199.6 111.5 178 Q 148.9 145.9 198.5 126 Z "/>
    <path fill="rgb(53,119,191)" stroke="rgb(53,119,191)" stroke-width="1" opacity="1"
          d="M 67.5 129 L 88 138.5 L 86.5 138 L 67.5 130 L 67.5 129 Z "/>
    <path fill="rgb(53,119,191)" stroke="rgb(53,119,191)" stroke-width="1" opacity="1"
          d="M 89.5 139 L 104 145.5 L 102.5 146 L 89.5 140 L 89.5 139 Z "/>
    <path fill="rgb(53,119,191)" stroke="rgb(53,119,191)" stroke-width="1" opacity="1"
          d="M 691.5 146 L 718.5 163 L 749 188 L 749 190 Q 751.7 188.9 751 191.5 Q 777.5 216 793 251.5 L 791 250.5 L 780 228.5 L 761 202 Q 758.3 203.1 759 200.5 L 732.5 175 Q 714.3 159.7 692.5 148 L 691.5 146 Z "/>
    <path fill="rgb(53,119,191)" stroke="rgb(53,119,191)" stroke-width="1" opacity="1"
          d="M 66.5 232 L 66 233.5 L 57.5 250 L 58 248.5 L 60 242.5 L 66.5 232 Z "/>
    <path fill="rgb(53,119,191)" stroke="rgb(53,119,191)" stroke-width="1" opacity="1"
          d="M 56.5 251 L 57 252.5 L 49 271.5 L 44.5 289 L 44 286.5 L 50 265.5 L 56.5 251 Z "/>
    <path fill="rgb(53,119,191)" stroke="rgb(53,119,191)" stroke-width="1" opacity="1"
          d="M 793.5 253 L 795 256.5 L 794 256.5 L 793.5 253 Z "/>
    <path fill="rgb(53,119,191)" stroke="rgb(53,119,191)" stroke-width="1" opacity="1"
          d="M 795.5 258 Q 805.5 278 808 305.5 L 807 305.5 L 806 294.5 L 803 281.5 L 795.5 258 Z "/>
    <path fill="rgb(53,119,191)" stroke="rgb(53,119,191)" stroke-width="1" opacity="1"
          d="M 43.5 290 L 44 295.5 L 42.5 299 L 42 295.5 L 43.5 290 Z "/>
    <path fill="rgb(53,119,191)" stroke="rgb(53,119,191)" stroke-width="1" opacity="1"
          d="M 41.5 301 L 42 307.5 L 41 308.5 L 40.5 318 L 40 307.5 L 41.5 301 Z "/>
    <path fill="rgb(53,119,191)" stroke="rgb(53,119,191)" stroke-width="1" opacity="1"
          d="M 808.5 308 L 810 316.5 L 810 352.5 L 809 353.5 L 808.5 362 L 808 352.5 L 809 351.5 L 809 317.5 L 808 316.5 L 808.5 308 Z "/>
    <path fill="rgb(53,119,191)" stroke="rgb(53,119,191)" stroke-width="1" opacity="1"
          d="M 57.5 316 L 59 316.5 L 55 319.5 L 54 321.5 L 54 349.5 L 55 350.5 L 55 358.5 L 54 358.5 Q 55.8 352.3 53 350.5 L 53 321.5 L 57.5 316 Z "/>
    <path fill="rgb(53,119,191)" stroke="rgb(53,119,191)" stroke-width="1" opacity="1"
          d="M 62.5 316 L 86 325.5 L 84.5 326 L 62.5 317 L 62.5 316 Z "/>
    <path fill="rgb(53,119,191)" stroke="rgb(53,119,191)" stroke-width="1" opacity="1"
          d="M 785.5 316 Q 793.5 314.5 795 319.5 L 794.5 321 L 792.5 318 L 786.5 317 L 772.5 323 L 772.5 322 L 785.5 316 Z "/>
    <path fill="rgb(53,119,191)" stroke="rgb(53,119,191)" stroke-width="1" opacity="1"
          d="M 39.5 320 L 40 348.5 L 39 348.5 L 39.5 320 Z "/>
    <path fill="rgb(53,119,191)" stroke="rgb(53,119,191)" stroke-width="1" opacity="1"
          d="M 795.5 322 L 796 347.5 L 795 347.5 L 795.5 322 Z "/>
    <path fill="rgb(53,119,191)" stroke="rgb(53,119,191)" stroke-width="1" opacity="1"
          d="M 769.5 323 L 771 323.5 L 744.5 333 L 744.5 332 L 769.5 323 Z "/>
    <path fill="rgb(53,119,191)" stroke="rgb(53,119,191)" stroke-width="1" opacity="1"
          d="M 87.5 326 L 123 337.5 L 120.5 338 L 89.5 328 L 87.5 326 Z "/>
    <path fill="rgb(53,119,191)" stroke="rgb(53,119,191)" stroke-width="1" opacity="1"
          d="M 66 332 L 69.5 332 L 89 340.5 L 87.5 341 L 67 333 L 67 355.5 L 68 356.5 L 70 376.5 L 77 400.5 L 76 400.5 L 68 371.5 Q 69 362.5 66 357.5 L 66 332 Z "/>
    <path fill="rgb(53,119,191)" stroke="rgb(53,119,191)" stroke-width="1" opacity="1"
          d="M 778.5 332 L 782 333 L 780.5 359 L 780 340.5 L 781 335.5 L 777.5 334 L 760.5 341 L 761.5 339 L 764.5 339 L 778.5 332 Z "/>
    <path fill="rgb(53,119,191)" stroke="rgb(53,119,191)" stroke-width="1" opacity="1"
          d="M 740.5 333 L 743 333.5 L 727.5 338 L 727.5 337 L 740.5 333 Z "/>
    <path fill="rgb(53,119,191)" stroke="rgb(53,119,191)" stroke-width="1" opacity="1"
          d="M 124.5 338 L 142 342.5 L 138.5 343 L 124.5 339 L 124.5 338 Z "/>
    <path fill="rgb(53,119,191)" stroke="rgb(53,119,191)" stroke-width="1" opacity="1"
          d="M 724.5 338 L 726 338.5 L 720.5 340 L 720.5 339 L 724.5 338 Z "/>
    <path fill="rgb(53,119,191)" stroke="rgb(53,119,191)" stroke-width="1" opacity="1"
          d="M 91.5 341 L 112.5 347 L 115.5 349 L 130.5 352 L 134 354.5 L 134 359.5 L 130.5 368 L 130 365.5 L 133 355.5 L 129.5 353 L 93.5 343 L 91.5 341 Z "/>
    <path fill="rgb(53,119,191)" stroke="rgb(53,119,191)" stroke-width="1" opacity="1"
          d="M 712.5 341 L 716 341.5 L 709.5 343 L 709.5 342 L 712.5 341 Z "/>
    <path fill="rgb(53,119,191)" stroke="rgb(53,119,191)" stroke-width="1" opacity="1"
          d="M 756.5 341 L 759 341.5 L 737.5 348 L 734.5 350 L 719.5 353 L 716 355.5 L 722 377.5 L 724 380.5 L 724 386 L 598.5 415 L 598.5 414 L 723 385 L 723 380.5 L 716 362.5 L 715 354.5 L 718.5 352 L 733.5 349 L 736.5 347 L 756.5 341 Z "/>
    <path fill="rgb(53,119,191)" stroke="rgb(53,119,191)" stroke-width="1" opacity="1"
          d="M 143.5 343 L 154 345.5 L 151.5 346 L 143.5 344 L 143.5 343 Z "/>
    <path fill="rgb(53,119,191)" stroke="rgb(53,119,191)" stroke-width="1" opacity="1"
          d="M 704.5 343 L 708 343.5 L 687.5 348 L 687.5 347 Q 697.5 346.5 704.5 343 Z "/>
    <path fill="rgb(53,119,191)" stroke="rgb(53,119,191)" stroke-width="1" opacity="1"
          d="M 155.5 346 L 163 347.5 L 159.5 348 L 155.5 347 L 155.5 346 Z "/>
    <path fill="rgb(53,119,191)" stroke="rgb(53,119,191)" stroke-width="1" opacity="1"
          d="M 165.5 348 L 172 349.5 L 168.5 350 L 165.5 349 L 165.5 348 Z "/>
    <path fill="rgb(53,119,191)" stroke="rgb(53,119,191)" stroke-width="1" opacity="1"
          d="M 682.5 348 L 686 348.5 L 678.5 350 L 678.5 349 L 682.5 348 Z "/>
    <path fill="rgb(53,119,191)" stroke="rgb(53,119,191)" stroke-width="1" opacity="1"
          d="M 173.5 350 L 183.5 351 L 187 352.5 L 183.5 353 L 173.5 351 L 173.5 350 Z "/>
    <path fill="rgb(53,119,191)" stroke="rgb(53,119,191)" stroke-width="1" opacity="1"
          d="M 673.5 350 L 677 350.5 L 663.5 353 L 663.5 352 L 673.5 350 Z "/>
    <path fill="rgb(53,119,191)" stroke="rgb(53,119,191)" stroke-width="1" opacity="1"
          d="M 40.5 352 L 42 368.5 L 41 368.5 L 40.5 352 Z "/>
    <path fill="rgb(53,119,191)" stroke="rgb(53,119,191)" stroke-width="1" opacity="1"
          d="M 794.5 352 L 795 362.5 L 793.5 368 L 793 362.5 L 794 361.5 L 794.5 352 Z "/>
    <path fill="rgb(53,119,191)" stroke="rgb(53,119,191)" stroke-width="1" opacity="1"
          d="M 188.5 353 L 199 354.5 L 193.5 355 L 188.5 354 L 188.5 353 Z "/>
    <path fill="rgb(53,119,191)" stroke="rgb(53,119,191)" stroke-width="1" opacity="1"
          d="M 657.5 353 L 662 353.5 L 652.5 355 L 652.5 354 L 657.5 353 Z "/>
    <path fill="rgb(53,119,191)" stroke="rgb(53,119,191)" stroke-width="1" opacity="1"
          d="M 200.5 355 L 215 357.5 L 211.5 358 L 200.5 356 L 200.5 355 Z "/>
    <path fill="rgb(53,119,191)" stroke="rgb(53,119,191)" stroke-width="1" opacity="1"
          d="M 646.5 355 L 651 355.5 L 635.5 358 L 635.5 357 L 646.5 355 Z "/>
    <path fill="rgb(53,119,191)" stroke="rgb(53,119,191)" stroke-width="1" opacity="1"
          d="M 217.5 358 Q 224.3 357.3 228 359.5 L 223.5 360 Q 222.3 357.8 217.5 359 L 217.5 358 Z "/>
    <path fill="rgb(53,119,191)" stroke="rgb(53,119,191)" stroke-width="1" opacity="1"
          d="M 627.5 358 L 633 358.5 L 622.5 360 L 622.5 359 L 627.5 358 Z "/>
    <path fill="rgb(53,119,191)" stroke="rgb(53,119,191)" stroke-width="1" opacity="1"
          d="M 55.5 360 L 57 373.5 L 56 373.5 L 55.5 360 Z "/>
    <path fill="rgb(53,119,191)" stroke="rgb(53,119,191)" stroke-width="1" opacity="1"
          d="M 231.5 360 L 236 360.5 L 231.5 361 L 231.5 360 Z "/>
    <path fill="rgb(53,119,191)" stroke="rgb(53,119,191)" stroke-width="1" opacity="1"
          d="M 614.5 360 L 619 360.5 L 614.5 361 L 614.5 360 Z "/>
    <path fill="rgb(53,119,191)" stroke="rgb(53,119,191)" stroke-width="1" opacity="1"
          d="M 779.5 360 L 780 366.5 L 775.5 387 L 775 383.5 L 778 373.5 L 778 365.5 L 779.5 360 Z "/>
    <path fill="rgb(53,119,191)" stroke="rgb(53,119,191)" stroke-width="1" opacity="1"
          d="M 237.5 361 L 245.5 361 L 251 362.5 L 245.5 363 Q 243.7 360.3 237.5 362 L 237.5 361 Z "/>
    <path fill="rgb(53,119,191)" stroke="rgb(53,119,191)" stroke-width="1" opacity="1"
          d="M 604.5 361 L 613 361.5 L 599.5 363 L 599.5 362 L 604.5 361 Z "/>
    <path fill="rgb(53,119,191)" stroke="rgb(53,119,191)" stroke-width="1" opacity="1"
          d="M 253.5 363 L 268 364.5 L 260.5 365 Q 259 362.5 253.5 364 L 253.5 363 Z "/>
    <path fill="rgb(53,119,191)" stroke="rgb(53,119,191)" stroke-width="1" opacity="1"
          d="M 588.5 363 L 597 363.5 L 582.5 365 L 582.5 364 Q 587.3 365.2 588.5 363 Z "/>
    <path fill="rgb(53,119,191)" stroke="rgb(53,119,191)" stroke-width="1" opacity="1"
          d="M 807.5 364 L 808 369.5 L 803.5 390 L 803 386.5 L 806 376.5 L 807.5 364 Z "/>
    <path fill="rgb(53,119,191)" stroke="rgb(53,119,191)" stroke-width="1" opacity="1"
          d="M 270.5 365 L 325 369.5 L 312.5 370 L 311.5 369 L 298.5 369 L 288.5 367 L 270.5 366 L 270.5 365 Z "/>
    <path fill="rgb(53,119,191)" stroke="rgb(53,119,191)" stroke-width="1" opacity="1"
          d="M 571.5 365 L 580 365.5 L 551.5 368 L 550.5 369 L 525.5 370 L 525.5 369 L 550.5 368 L 551.5 367 L 570.5 366 L 571.5 365 Z "/>
    <path fill="rgb(53,119,191)" stroke="rgb(53,119,191)" stroke-width="1" opacity="1"
          d="M 664.5 365 L 664 366.5 L 662.5 369 L 659.5 369 L 608.5 388 L 596.5 391 L 570 401.5 L 570 405.5 L 574 419 L 596.5 415 L 596.5 416 L 588.5 417 L 579.5 420 L 573 420 L 568 401.5 L 570.5 399 L 573.5 399 L 590.5 392 L 593.5 392 L 633.5 377 L 636.5 377 L 653.5 371 L 657 368.5 L 650.5 368 L 644.5 370 L 632.5 371 L 632.5 370 L 643.5 369 L 655.5 366 L 663.5 366 L 664.5 365 Z "/>
    <path fill="rgb(53,119,191)" stroke="rgb(53,119,191)" stroke-width="1" opacity="1"
          d="M 186 366 L 192.5 366 L 228 372.5 L 221.5 373 L 215.5 371 L 193 368 Q 191.8 371 195.5 370 L 275 398.5 L 272.5 399 L 189.5 369 L 186 369 L 186 366 Z "/>
    <path fill="rgb(53,119,191)" stroke="rgb(53,119,191)" stroke-width="1" opacity="1"
          d="M 129.5 369 L 130 371.5 L 126 385 L 158 392.5 L 154.5 393 L 125 386 L 126 377.5 L 129.5 369 Z "/>
    <path fill="rgb(53,119,191)" stroke="rgb(53,119,191)" stroke-width="1" opacity="1"
          d="M 328.5 370 L 390 372.5 L 367.5 373 L 366.5 372 L 328.5 371 L 328.5 370 Z "/>
    <path fill="rgb(53,119,191)" stroke="rgb(53,119,191)" stroke-width="1" opacity="1"
          d="M 506.5 370 L 521 370.5 L 507.5 371 L 506.5 372 L 482.5 372 L 482.5 371 L 505.5 371 L 506.5 370 Z "/>
    <path fill="rgb(53,119,191)" stroke="rgb(53,119,191)" stroke-width="1" opacity="1"
          d="M 42.5 371 L 44 380.5 L 43 380.5 L 42.5 371 Z "/>
    <path fill="rgb(53,119,191)" stroke="rgb(53,119,191)" stroke-width="1" opacity="1"
          d="M 624.5 371 L 631 371.5 L 620.5 373 L 620.5 372 L 624.5 371 Z "/>
    <path fill="rgb(53,119,191)" stroke="rgb(53,119,191)" stroke-width="1" opacity="1"
          d="M 792.5 371 L 793 374.5 L 790 389.5 L 783.5 408 L 783 406.5 Q 789.8 390.8 792.5 371 Z "/>
    <path fill="rgb(53,119,191)" stroke="rgb(53,119,191)" stroke-width="1" opacity="1"
          d="M 457.5 372 L 481 372.5 L 457.5 373 L 457.5 372 Z "/>
    <path fill="rgb(53,119,191)" stroke="rgb(53,119,191)" stroke-width="1" opacity="1"
          d="M 230.5 373 L 269 377.5 L 259.5 378 L 243.5 375 L 235.5 375 L 230.5 374 L 230.5 373 Z "/>
    <path fill="rgb(53,119,191)" stroke="rgb(53,119,191)" stroke-width="1" opacity="1"
          d="M 396.5 373 L 451 373.5 L 396.5 374 L 396.5 373 Z "/>
    <path fill="rgb(53,119,191)" stroke="rgb(53,119,191)" stroke-width="1" opacity="1"
          d="M 611.5 373 L 617 373.5 L 612.5 375 L 596.5 376 L 595.5 377 L 577.5 378 L 577.5 377 L 595.5 376 L 611.5 373 Z "/>
    <path fill="rgb(53,119,191)" stroke="rgb(53,119,191)" stroke-width="1" opacity="1"
          d="M 57.5 376 L 60 387.5 L 59 387.5 L 57.5 376 Z "/>
    <path fill="rgb(53,119,191)" stroke="rgb(53,119,191)" stroke-width="1" opacity="1"
          d="M 271.5 378 L 291.5 379 L 299 380.5 L 290.5 381 L 289.5 380 L 271.5 379 L 271.5 378 Z "/>
    <path fill="rgb(53,119,191)" stroke="rgb(53,119,191)" stroke-width="1" opacity="1"
          d="M 567.5 378 L 576 378.5 L 568.5 380 L 547.5 381 L 547.5 380 L 566.5 379 L 567.5 378 Z "/>
    <path fill="rgb(53,119,191)" stroke="rgb(53,119,191)" stroke-width="1" opacity="1"
          d="M 300.5 381 L 315.5 381 L 316.5 382 L 326 382.5 L 313.5 383 L 312.5 382 L 300.5 382 L 300.5 381 Z "/>
    <path fill="rgb(53,119,191)" stroke="rgb(53,119,191)" stroke-width="1" opacity="1"
          d="M 530.5 381 L 546 381.5 L 519.5 383 L 519.5 382 L 529.5 382 L 530.5 381 Z "/>
    <path fill="rgb(53,119,191)" stroke="rgb(53,119,191)" stroke-width="1" opacity="1"
          d="M 44.5 382 L 45 384.5 L 44 384.5 L 44.5 382 Z "/>
    <path fill="rgb(53,119,191)" stroke="rgb(53,119,191)" stroke-width="1" opacity="1"
          d="M 331.5 383 L 380.5 384 L 381.5 385 L 463.5 385 L 464.5 384 L 514.5 383 L 514.5 384 L 472.5 385 L 471.5 386 L 373.5 386 L 372.5 385 L 331.5 384 L 331.5 383 Z "/>
    <path fill="rgb(53,119,191)" stroke="rgb(53,119,191)" stroke-width="1" opacity="1"
          d="M 45.5 386 L 52 408.5 L 51 408.5 L 45 389.5 L 45.5 386 Z "/>
    <path fill="rgb(53,119,191)" stroke="rgb(53,119,191)" stroke-width="1" opacity="1"
          d="M 774.5 388 L 775 391.5 Q 769 413.8 759 431 L 736.5 442 L 727.5 445 L 727.5 444 Q 745.1 438.1 759 428.5 L 770 404.5 L 774.5 388 Z "/>
    <path fill="rgb(53,119,191)" stroke="rgb(53,119,191)" stroke-width="1" opacity="1"
          d="M 60.5 389 L 62 395.5 L 61 395.5 L 60.5 389 Z "/>
    <path fill="rgb(53,119,191)" stroke="rgb(53,119,191)" stroke-width="1" opacity="1"
          d="M 802.5 391 L 803 393.5 L 796.5 412 L 796 410.5 L 802.5 391 Z "/>
    <path fill="rgb(53,119,191)" stroke="rgb(53,119,191)" stroke-width="1" opacity="1"
          d="M 159.5 393 L 171.5 396 L 176.5 396 L 188 399.5 L 183.5 400 L 175.5 397 L 162.5 395 L 159.5 394 L 159.5 393 Z "/>
    <path fill="rgb(53,119,191)" stroke="rgb(53,119,191)" stroke-width="1" opacity="1"
          d="M 62.5 397 L 65 404.5 L 64 404.5 L 62.5 397 Z "/>
    <path fill="rgb(53,119,191)" stroke="rgb(53,119,191)" stroke-width="1" opacity="1"
          d="M 276.5 399 Q 280.5 398.5 281 401.5 L 279.5 407 L 279 404.5 L 280 401 Q 275.8 401 276.5 399 Z "/>
    <path fill="rgb(53,119,191)" stroke="rgb(53,119,191)" stroke-width="1" opacity="1"
          d="M 189.5 400 L 197.5 401 L 201.5 403 L 218.5 406 L 222.5 408 L 226.5 408 L 251 414.5 L 247.5 415 L 230.5 410 L 213.5 407 L 209.5 405 L 192.5 402 L 189.5 401 L 189.5 400 Z "/>
    <path fill="rgb(53,119,191)" stroke="rgb(53,119,191)" stroke-width="1" opacity="1"
          d="M 77.5 402 Q 82.3 418.7 91.5 431 L 116.5 443 L 142.5 453 L 180 464.5 L 176.5 465 L 150.5 457 L 147.5 455 L 144.5 455 L 118.5 445 L 91.5 432 L 88 428.5 L 78 407.5 L 77.5 402 Z "/>
    <path fill="rgb(53,119,191)" stroke="rgb(53,119,191)" stroke-width="1" opacity="1"
          d="M 65.5 406 L 79 436.5 L 83.5 441 Q 110 455.5 141 465.5 L 138.5 466 L 105.5 453 L 81.5 441 L 79 438.5 L 69 418.5 L 65 408.5 L 65.5 406 Z "/>
    <path fill="rgb(53,119,191)" stroke="rgb(53,119,191)" stroke-width="1" opacity="1"
          d="M 278.5 408 L 279 410.5 L 277.5 414 L 277 410.5 L 278.5 408 Z "/>
    <path fill="rgb(53,119,191)" stroke="rgb(53,119,191)" stroke-width="1" opacity="1"
          d="M 203.5 409 L 260 423.5 L 257.5 424 L 220.5 415 L 216.5 413 L 203.5 411 L 199 416.5 L 197 424.5 L 197 430.5 Q 199.3 443.3 208.5 449 L 223.5 455 L 233.5 455 L 246.5 450 L 254 443.5 L 259.5 432 L 260 434.5 Q 256.5 444.5 248.5 450 L 233.5 456 L 223.5 456 Q 210.2 453.8 203 445.5 Q 195.2 438.8 196 423.5 L 200 412.5 L 203.5 409 Z "/>
    <path fill="rgb(53,119,191)" stroke="rgb(53,119,191)" stroke-width="1" opacity="1"
          d="M 644.5 409 L 650 413.5 L 653 420.5 L 653 433.5 Q 649.9 443.4 642.5 449 L 633.5 454 L 626.5 456 L 615.5 456 Q 600.8 452.8 593 442.5 L 589 434.5 L 588 426.5 L 589 423 L 600.5 421 L 604.5 419 L 608.5 419 L 616.5 416 L 620.5 416 L 624.5 414 L 628.5 414 L 632.5 412 L 640.5 411 L 640.5 412 L 632.5 413 L 609.5 420 L 605.5 420 L 601.5 422 L 590 424 L 590 434.5 L 598.5 447 Q 607.4 455.6 625.5 455 L 639.5 450 L 648 441.5 Q 653.7 435.2 652 421.5 L 647 411 L 642 410.5 L 644.5 409 Z "/>
    <path fill="rgb(53,119,191)" stroke="rgb(53,119,191)" stroke-width="1" opacity="1"
          d="M 782.5 409 L 783 411.5 L 773 433.5 L 767.5 441 L 757.5 446 L 758.5 444 Q 766.1 442.1 770 436.5 L 782.5 409 Z "/>
    <path fill="rgb(53,119,191)" stroke="rgb(53,119,191)" stroke-width="1" opacity="1"
          d="M 52.5 410 Q 70.5 457 105.5 487 Q 126.4 505.6 152 519.5 L 150.5 519 L 122.5 502 L 96 480 L 96 478.5 L 80 461.5 L 65 439.5 L 55 419.5 L 52.5 410 Z "/>
    <path fill="rgb(53,119,191)" stroke="rgb(53,119,191)" stroke-width="1" opacity="1"
          d="M 795.5 413 L 796 414.5 Q 791.3 428.3 783.5 439 L 784 437.5 L 795.5 413 Z "/>
    <path fill="rgb(53,119,191)" stroke="rgb(53,119,191)" stroke-width="1" opacity="1"
          d="M 253.5 415 L 275 419 L 276.5 415 L 277 417.5 L 274.5 421 L 260.5 417 L 255.5 417 L 253.5 415 Z "/>
    <path fill="rgb(53,119,191)" stroke="rgb(53,119,191)" stroke-width="1" opacity="1"
          d="M 260.5 425 L 261 429.5 L 260 429.5 L 260.5 425 Z "/>
    <path fill="rgb(53,119,191)" stroke="rgb(53,119,191)" stroke-width="1" opacity="1"
          d="M 782.5 440 L 782 441.5 Q 769.9 463.4 752.5 480 Q 728.6 503.6 697.5 520 L 698.5 518 Q 736.5 498.5 763 467.5 L 782.5 440 Z "/>
    <path fill="rgb(53,119,191)" stroke="rgb(53,119,191)" stroke-width="1" opacity="1"
          d="M 724.5 445 L 726 445.5 Q 707.8 454.8 685.5 460 L 685.5 459 Q 706.7 453.7 724.5 445 Z "/>
    <path fill="rgb(53,119,191)" stroke="rgb(53,119,191)" stroke-width="1" opacity="1"
          d="M 754.5 446 L 756 446.5 Q 734.4 458.4 708.5 466 L 708.5 465 Q 733.6 457.6 754.5 446 Z "/>
    <path fill="rgb(53,119,191)" stroke="rgb(53,119,191)" stroke-width="1" opacity="1"
          d="M 681.5 460 L 684 460.5 L 674.5 464 L 656.5 468 L 656.5 467 L 670.5 463 L 674.5 463 L 681.5 460 Z "/>
    <path fill="rgb(53,119,191)" stroke="rgb(53,119,191)" stroke-width="1" opacity="1"
          d="M 181.5 465 L 191 467.5 L 188.5 468 L 181.5 466 L 181.5 465 Z "/>
    <path fill="rgb(53,119,191)" stroke="rgb(53,119,191)" stroke-width="1" opacity="1"
          d="M 142.5 466 L 172 475.5 L 169.5 476 L 149.5 470 L 142.5 467 L 142.5 466 Z "/>
    <path fill="rgb(53,119,191)" stroke="rgb(53,119,191)" stroke-width="1" opacity="1"
          d="M 705.5 466 L 707 466.5 L 699.5 470 L 677.5 476 L 677.5 475 L 705.5 466 Z "/>
    <path fill="rgb(53,119,191)" stroke="rgb(53,119,191)" stroke-width="1" opacity="1"
          d="M 192.5 468 L 236.5 478 L 242.5 478 L 247.5 480 L 253.5 480 L 278 484.5 L 272.5 485 L 211.5 474 L 192.5 469 L 192.5 468 Z "/>
    <path fill="rgb(53,119,191)" stroke="rgb(53,119,191)" stroke-width="1" opacity="1"
          d="M 651.5 468 L 655 468.5 Q 637.4 474.9 615.5 477 L 611.5 479 L 605.5 479 L 594.5 482 L 587.5 482 L 581.5 484 L 569.5 485 L 569.5 484 L 599.5 480 L 604.5 478 L 610.5 478 L 615.5 476 L 643.5 471 L 651.5 468 Z "/>
    <path fill="rgb(53,119,191)" stroke="rgb(53,119,191)" stroke-width="1" opacity="1"
          d="M 173.5 476 L 199 482.5 L 195.5 483 L 173.5 477 L 173.5 476 Z "/>
    <path fill="rgb(53,119,191)" stroke="rgb(53,119,191)" stroke-width="1" opacity="1"
          d="M 673.5 476 L 676 476.5 L 650.5 483 L 650.5 482 L 673.5 476 Z "/>
    <path fill="rgb(53,119,191)" stroke="rgb(53,119,191)" stroke-width="1" opacity="1"
          d="M 201.5 483 L 208 484.5 L 203.5 485 L 201.5 483 Z "/>
    <path fill="rgb(53,119,191)" stroke="rgb(53,119,191)" stroke-width="1" opacity="1"
          d="M 645.5 483 L 648 483.5 Q 646.3 485.8 641.5 485 L 641.5 484 L 645.5 483 Z "/>
    <path fill="rgb(53,119,191)" stroke="rgb(53,119,191)" stroke-width="1" opacity="1"
          d="M 209.5 485 L 221 487.5 L 217.5 488 L 209.5 486 L 209.5 485 Z "/>
    <path fill="rgb(53,119,191)" stroke="rgb(53,119,191)" stroke-width="1" opacity="1"
          d="M 279.5 485 L 294.5 486 L 302.5 488 L 313.5 488 L 321.5 490 L 334.5 490 L 335.5 491 L 347 491.5 L 332.5 492 L 331.5 491 L 321.5 491 L 311.5 489 L 301.5 489 L 294.5 487 L 285.5 487 Q 284.3 484.7 279.5 486 L 279.5 485 Z "/>
    <path fill="rgb(53,119,191)" stroke="rgb(53,119,191)" stroke-width="1" opacity="1"
          d="M 560.5 485 L 568 485.5 L 552.5 487 L 545.5 489 L 535.5 489 L 534.5 490 L 515.5 491 L 514.5 492 L 500.5 492 L 499.5 493 L 489.5 493 L 488.5 494 L 463.5 494 L 462.5 495 L 385.5 495 L 384.5 494 L 359.5 494 L 358.5 493 L 348 492.5 L 363.5 492 L 364.5 493 L 389.5 493 L 390.5 494 L 458.5 494 L 459.5 493 L 483.5 493 L 484.5 492 L 525.5 490 L 526.5 489 L 544.5 488 L 560.5 485 Z "/>
    <path fill="rgb(53,119,191)" stroke="rgb(53,119,191)" stroke-width="1" opacity="1"
          d="M 637.5 485 L 640 485.5 L 628.5 488 L 628.5 487 L 637.5 485 Z "/>
    <path fill="rgb(53,119,191)" stroke="rgb(53,119,191)" stroke-width="1" opacity="1"
          d="M 223.5 488 L 280 497.5 L 274.5 498 L 273.5 497 L 266.5 497 L 260.5 495 L 253.5 495 L 242.5 492 L 237.5 492 L 232.5 490 L 226.5 490 L 223.5 489 L 223.5 488 Z "/>
    <path fill="rgb(53,119,191)" stroke="rgb(53,119,191)" stroke-width="1" opacity="1"
          d="M 622.5 488 L 627 488.5 L 595.5 495 L 588.5 495 L 582.5 497 L 569.5 498 L 569.5 497 L 600.5 493 L 622.5 488 Z "/>
    <path fill="rgb(53,119,191)" stroke="rgb(53,119,191)" stroke-width="1" opacity="1"
          d="M 282.5 498 L 297 499.5 L 288.5 500 Q 287.3 497.8 282.5 499 L 282.5 498 Z "/>
    <path fill="rgb(53,119,191)" stroke="rgb(53,119,191)" stroke-width="1" opacity="1"
          d="M 560.5 498 L 567 498.5 L 553.5 500 L 553.5 499 Q 559 500.5 560.5 498 Z "/>
    <path fill="rgb(53,119,191)" stroke="rgb(53,119,191)" stroke-width="1" opacity="1"
          d="M 299.5 500 L 324 502.5 L 316.5 503 L 315.5 502 L 299.5 501 L 299.5 500 Z "/>
    <path fill="rgb(53,119,191)" stroke="rgb(53,119,191)" stroke-width="1" opacity="1"
          d="M 545.5 500 L 550 500.5 L 545.5 501 L 545.5 500 Z "/>
    <path fill="rgb(53,119,191)" stroke="rgb(53,119,191)" stroke-width="1" opacity="1"
          d="M 533.5 501 L 544 501.5 L 525.5 503 L 525.5 502 Q 531.7 503.8 533.5 501 Z "/>
    <path fill="rgb(53,119,191)" stroke="rgb(53,119,191)" stroke-width="1" opacity="1"
          d="M 326.5 503 L 352 504.5 L 337.5 505 L 336.5 504 L 326.5 504 L 326.5 503 Z "/>
    <path fill="rgb(53,119,191)" stroke="rgb(53,119,191)" stroke-width="1" opacity="1"
          d="M 510.5 503 L 524 503.5 L 512.5 504 L 511.5 505 L 496.5 505 L 496.5 504 L 509.5 504 L 510.5 503 Z "/>
    <path fill="rgb(53,119,191)" stroke="rgb(53,119,191)" stroke-width="1" opacity="1"
          d="M 356.5 505 L 368.5 505 L 369.5 506 L 404.5 506 L 405.5 507 L 443.5 507 L 444.5 506 L 479.5 506 L 480.5 505 L 492.5 505 L 492.5 506 L 482.5 506 L 481.5 507 L 446.5 507 L 445.5 508 L 404.5 508 L 403.5 507 L 367.5 507 L 366.5 506 L 356.5 506 L 356.5 505 Z "/>
    <path fill="rgb(53,119,191)" stroke="rgb(53,119,191)" stroke-width="1" opacity="1"
          d="M 153.5 520 Q 175.7 532.8 202 541.5 L 199.5 542 L 170.5 530 L 154.5 522 L 153.5 520 Z "/>
    <path fill="rgb(53,119,191)" stroke="rgb(53,119,191)" stroke-width="1" opacity="1"
          d="M 695.5 520 L 694.5 522 Q 675.5 532.5 653.5 540 L 653.5 539 Q 676.4 531.4 695.5 520 Z "/>
    <path fill="rgb(53,119,191)" stroke="rgb(53,119,191)" stroke-width="1" opacity="1"
          d="M 649.5 540 L 652 540.5 L 647.5 542 L 647.5 541 L 649.5 540 Z "/>
    <path fill="rgb(53,119,191)" stroke="rgb(53,119,191)" stroke-width="1" opacity="1"
          d="M 203.5 542 L 233 551.5 L 230.5 552 L 205.5 544 L 203.5 542 Z "/>
    <path fill="rgb(53,119,191)" stroke="rgb(53,119,191)" stroke-width="1" opacity="1"
          d="M 644.5 542 L 646 542.5 L 616.5 552 L 616.5 551 L 644.5 542 Z "/>
    <path fill="rgb(53,119,191)" stroke="rgb(53,119,191)" stroke-width="1" opacity="1"
          d="M 235.5 552 L 245 554.5 L 242.5 555 L 235.5 553 L 235.5 552 Z "/>
    <path fill="rgb(53,119,191)" stroke="rgb(53,119,191)" stroke-width="1" opacity="1"
          d="M 611.5 552 L 614 552.5 L 604.5 555 L 604.5 554 L 611.5 552 Z "/>
    <path fill="rgb(53,119,191)" stroke="rgb(53,119,191)" stroke-width="1" opacity="1"
          d="M 246.5 555 L 253 556.5 L 250.5 557 L 246.5 556 L 246.5 555 Z "/>
    <path fill="rgb(53,119,191)" stroke="rgb(53,119,191)" stroke-width="1" opacity="1"
          d="M 599.5 555 L 603 555.5 L 596.5 557 L 596.5 556 L 599.5 555 Z "/>
    <path fill="rgb(53,119,191)" stroke="rgb(53,119,191)" stroke-width="1" opacity="1"
          d="M 254.5 557 L 277 561.5 L 272.5 562 L 254.5 558 L 254.5 557 Z "/>
    <path fill="rgb(53,119,191)" stroke="rgb(53,119,191)" stroke-width="1" opacity="1"
          d="M 591.5 557 L 595 557.5 L 583.5 560 L 583.5 559 L 591.5 557 Z "/>
    <path fill="rgb(53,119,191)" stroke="rgb(53,119,191)" stroke-width="1" opacity="1"
          d="M 576.5 560 L 582 560.5 L 573.5 562 L 573.5 561 L 576.5 560 Z "/>
    <path fill="rgb(53,119,191)" stroke="rgb(53,119,191)" stroke-width="1" opacity="1"
          d="M 278.5 562 L 307 566.5 L 301.5 567 L 278.5 563 L 278.5 562 Z "/>
    <path fill="rgb(53,119,191)" stroke="rgb(53,119,191)" stroke-width="1" opacity="1"
          d="M 566.5 562 L 571 562.5 L 554.5 566 L 542.5 567 L 542.5 566 L 554.5 565 L 566.5 562 Z "/>
    <path fill="rgb(53,119,191)" stroke="rgb(53,119,191)" stroke-width="1" opacity="1"
          d="M 309.5 567 L 352 571.5 L 343.5 572 L 342.5 571 L 331.5 571 L 323.5 569 L 315.5 569 Q 314.3 566.8 309.5 568 L 309.5 567 Z "/>
    <path fill="rgb(53,119,191)" stroke="rgb(53,119,191)" stroke-width="1" opacity="1"
          d="M 533.5 567 L 540 567.5 L 518.5 570 L 517.5 571 L 497.5 572 L 497.5 571 L 517.5 570 L 533.5 567 Z "/>
    <path fill="rgb(53,119,191)" stroke="rgb(53,119,191)" stroke-width="1" opacity="1"
          d="M 355.5 572 L 388 573.5 L 369.5 574 L 368.5 573 L 355.5 573 L 355.5 572 Z "/>
    <path fill="rgb(53,119,191)" stroke="rgb(53,119,191)" stroke-width="1" opacity="1"
          d="M 479.5 572 L 493 572.5 L 481.5 573 L 480.5 574 L 461.5 574 L 461.5 573 L 478.5 573 L 479.5 572 Z "/>
    <path fill="rgb(53,119,191)" stroke="rgb(53,119,191)" stroke-width="1" opacity="1"
          d="M 397.5 574 L 452 574.5 L 397.5 575 L 397.5 574 Z "/>
    <path fill="rgb(53,119,191)" stroke="rgb(53,119,191)" stroke-width="1" opacity="1"
          d="M 295.5 585 L 298 585.5 L 294 587.5 L 293.5 590 L 293 587.5 L 295.5 585 Z "/>
    <path fill="rgb(53,119,191)" stroke="rgb(53,119,191)" stroke-width="1" opacity="1"
          d="M 551.5 585 L 561.5 585 L 563 586.5 L 564 591.5 L 563 591.5 L 562 586 L 551.5 586 L 551.5 585 Z "/>
    <path fill="rgb(53,119,191)" stroke="rgb(53,119,191)" stroke-width="1" opacity="1"
          d="M 300.5 586 L 318 588.5 L 312.5 589 L 311.5 588 L 300.5 587 L 300.5 586 Z "/>
    <path fill="rgb(53,119,191)" stroke="rgb(53,119,191)" stroke-width="1" opacity="1"
          d="M 544.5 586 L 550 586.5 L 531.5 589 L 531.5 588 L 543.5 587 L 544.5 586 Z "/>
    <path fill="rgb(53,119,191)" stroke="rgb(53,119,191)" stroke-width="1" opacity="1"
          d="M 99.5 589 L 268.5 589 L 270 590.5 L 269.5 595 L 269 591 L 99.5 591 L 99 592.5 L 97 591.5 L 99.5 589 Z "/>
    <path fill="rgb(53,119,191)" stroke="rgb(53,119,191)" stroke-width="1" opacity="1"
          d="M 320.5 589 L 335 590.5 L 326.5 591 Q 325.3 588.8 320.5 590 L 320.5 589 Z "/>
    <path fill="rgb(53,119,191)" stroke="rgb(53,119,191)" stroke-width="1" opacity="1"
          d="M 522.5 589 L 529 589.5 L 522.5 591 L 514.5 591 L 514.5 590 Q 520.8 591.8 522.5 589 Z "/>
    <path fill="rgb(53,119,191)" stroke="rgb(53,119,191)" stroke-width="1" opacity="1"
          d="M 588.5 589 L 757.5 589 L 759 590.5 L 749 609.5 L 707.5 678 L 708 676.5 L 758 591.5 L 588 591 L 589 600.5 L 588 600.5 L 586 591.5 L 588.5 589 Z "/>
    <path fill="rgb(53,119,191)" stroke="rgb(53,119,191)" stroke-width="1" opacity="1"
          d="M 292.5 591 L 293 595.5 L 291.5 599 L 291 595.5 L 292.5 591 Z "/>
    <path fill="rgb(53,119,191)" stroke="rgb(53,119,191)" stroke-width="1" opacity="1"
          d="M 337.5 591 L 343 591.5 L 337.5 592 L 337.5 591 Z "/>
    <path fill="rgb(53,119,191)" stroke="rgb(53,119,191)" stroke-width="1" opacity="1"
          d="M 506.5 591 L 513 591.5 L 506.5 592 L 506.5 591 Z "/>
    <path fill="rgb(53,119,191)" stroke="rgb(53,119,191)" stroke-width="1" opacity="1"
          d="M 344.5 592 L 355.5 592 L 356.5 593 L 365 593.5 L 356.5 594 L 355.5 593 L 344.5 593 L 344.5 592 Z "/>
    <path fill="rgb(53,119,191)" stroke="rgb(53,119,191)" stroke-width="1" opacity="1"
          d="M 493.5 592 L 505 592.5 L 484.5 594 L 484.5 593 L 492.5 593 L 493.5 592 Z "/>
    <path fill="rgb(53,119,191)" stroke="rgb(53,119,191)" stroke-width="1" opacity="1"
          d="M 0.5 593 L 73.5 593 L 76 594 L 75.5 596 L 73.5 594 L 0.5 594 L 0.5 593 Z "/>
    <path fill="rgb(53,119,191)" stroke="rgb(53,119,191)" stroke-width="1" opacity="1"
          d="M 564.5 593 L 567 604.5 L 566 604.5 L 564.5 593 Z "/>
    <path fill="rgb(53,119,191)" stroke="rgb(53,119,191)" stroke-width="1" opacity="1"
          d="M 782.5 593 L 855.5 593 L 858 594 L 858 600.5 L 852 609.5 L 832.5 631 L 821.5 637 L 794.5 637 L 793.5 636 L 776.5 634 L 771.5 632 L 766.5 632 L 762 629.5 L 763 624.5 L 782.5 593 Z M 784 594 Q 772 610 763 629 L 769 631 L 797 636 L 821 636 L 825 635 L 840 623 L 856 602 L 857 596 L 856 594 L 784 594 Z "/>
    <path fill="rgb(53,119,191)" stroke="rgb(53,119,191)" stroke-width="1" opacity="1"
          d="M 99.5 594 L 111 612.5 L 109 611.5 L 99.5 594 Z "/>
    <path fill="rgb(53,119,191)" stroke="rgb(53,119,191)" stroke-width="1" opacity="1"
          d="M 372.5 594 L 399 595.5 L 381.5 596 L 380.5 595 L 372.5 595 L 372.5 594 Z "/>
    <path fill="rgb(53,119,191)" stroke="rgb(53,119,191)" stroke-width="1" opacity="1"
          d="M 468.5 594 L 477 594.5 L 458.5 596 L 458.5 595 L 467.5 595 L 468.5 594 Z "/>
    <path fill="rgb(53,119,191)" stroke="rgb(53,119,191)" stroke-width="1" opacity="1"
          d="M 268.5 596 L 269 599.5 L 264.5 617 L 264 613.5 L 268.5 596 Z "/>
    <path fill="rgb(53,119,191)" stroke="rgb(53,119,191)" stroke-width="1" opacity="1"
          d="M 402.5 596 L 453 596.5 L 402.5 597 L 402.5 596 Z "/>
    <path fill="rgb(53,119,191)" stroke="rgb(53,119,191)" stroke-width="1" opacity="1"
          d="M 76.5 597 L 93 623.5 L 95 629.5 L 90.5 632 L 70.5 635 L 70.5 634 L 89.5 631 L 94 628.5 L 76.5 597 Z "/>
    <path fill="rgb(53,119,191)" stroke="rgb(53,119,191)" stroke-width="1" opacity="1"
          d="M 290.5 600 L 291 603.5 L 288.5 612 L 288 609.5 L 290.5 600 Z "/>
    <path fill="rgb(53,119,191)" stroke="rgb(53,119,191)" stroke-width="1" opacity="1"
          d="M 0.5 601 Q 8.8 615.2 20.5 626 L 32.5 635 L 36.5 636 L 60.5 636 Q 62.3 633.3 68.5 635 L 68.5 636 Q 63.8 634.7 62.5 637 L 35.5 637 L 28.5 634 L 11 617.5 L 0 602.5 L 0.5 601 Z "/>
    <path fill="rgb(53,119,191)" stroke="rgb(53,119,191)" stroke-width="1" opacity="1"
          d="M 589.5 602 L 591 609.5 L 590 609.5 L 589.5 602 Z "/>
    <path fill="rgb(53,119,191)" stroke="rgb(53,119,191)" stroke-width="1" opacity="1"
          d="M 567.5 606 L 569 613.5 L 568 613.5 L 567.5 606 Z "/>
    <path fill="rgb(53,119,191)" stroke="rgb(53,119,191)" stroke-width="1" opacity="1"
          d="M 591.5 611 L 593 618.5 L 592 618.5 L 591.5 611 Z "/>
    <path fill="rgb(53,119,191)" stroke="rgb(53,119,191)" stroke-width="1" opacity="1"
          d="M 287.5 613 L 288 617.5 L 286.5 621 L 286 617.5 L 287.5 613 Z "/>
    <path fill="rgb(53,119,191)" stroke="rgb(53,119,191)" stroke-width="1" opacity="1"
          d="M 111.5 614 L 131 646.5 L 129 645.5 L 111.5 614 Z "/>
    <path fill="rgb(53,119,191)" stroke="rgb(53,119,191)" stroke-width="1" opacity="1"
          d="M 569.5 615 L 579 656.5 L 578 656.5 L 572 627.5 L 570 623.5 L 569.5 615 Z "/>
    <path fill="rgb(53,119,191)" stroke="rgb(53,119,191)" stroke-width="1" opacity="1"
          d="M 263.5 618 L 264 621.5 L 261.5 630 L 261 627.5 L 263.5 618 Z "/>
    <path fill="rgb(53,119,191)" stroke="rgb(53,119,191)" stroke-width="1" opacity="1"
          d="M 593.5 620 L 596 631.5 L 595 631.5 L 593.5 620 Z "/>
    <path fill="rgb(53,119,191)" stroke="rgb(53,119,191)" stroke-width="1" opacity="1"
          d="M 285.5 622 L 286 625.5 L 281.5 643 L 281 639.5 L 285.5 622 Z "/>
    <path fill="rgb(53,119,191)" stroke="rgb(53,119,191)" stroke-width="1" opacity="1"
          d="M 260.5 631 L 261 635.5 L 259.5 639 L 259 635.5 L 260.5 631 Z "/>
    <path fill="rgb(53,119,191)" stroke="rgb(53,119,191)" stroke-width="1" opacity="1"
          d="M 596.5 633 L 599 644.5 L 598 644.5 L 596.5 633 Z "/>
    <path fill="rgb(53,119,191)" stroke="rgb(53,119,191)" stroke-width="1" opacity="1"
          d="M 258.5 641 L 259 643.5 L 254.5 661 L 254 657.5 L 258.5 641 Z "/>
    <path fill="rgb(53,119,191)" stroke="rgb(53,119,191)" stroke-width="1" opacity="1"
          d="M 100.5 643 Q 105.5 642.5 106 646.5 L 115 663.5 L 111.5 666 L 99.5 669 L 90.5 673 L 80.5 674 Q 74.4 672.6 72 667.5 Q 69.7 664.3 71 657.5 L 75.5 652 L 82.5 649 L 82.5 650 Q 76 651.5 73 656.5 L 72 664.5 L 75.5 670 Q 78.3 673.7 85.5 673 L 111.5 665 L 114 662.5 L 104 645 L 100.5 644 L 84.5 649 L 84.5 648 L 100.5 643 Z "/>
    <path fill="rgb(53,119,191)" stroke="rgb(53,119,191)" stroke-width="1" opacity="1"
          d="M 754.5 643 L 756 643.5 L 752 646.5 L 744 659.5 L 743 664 L 763.5 670 L 766.5 672 L 774.5 673 L 778.5 672 L 783 667.5 Q 785.7 665.2 785 659.5 L 780.5 653 L 775.5 650 L 757 644.5 L 759.5 644 L 775.5 649 L 785 656.5 L 786 663.5 L 780.5 672 Q 777.2 675.2 769.5 674 L 763.5 671 L 742 665 L 742 661.5 L 752 644 L 754.5 643 Z "/>
    <path fill="rgb(53,119,191)" stroke="rgb(53,119,191)" stroke-width="1" opacity="1"
          d="M 280.5 644 L 281 647.5 L 276.5 664 L 276 661.5 L 280.5 644 Z "/>
    <path fill="rgb(53,119,191)" stroke="rgb(53,119,191)" stroke-width="1" opacity="1"
          d="M 599.5 646 L 601 653.5 L 600 653.5 L 599.5 646 Z "/>
    <path fill="rgb(53,119,191)" stroke="rgb(53,119,191)" stroke-width="1" opacity="1"
          d="M 131.5 648 L 150 678.5 L 148 677.5 L 131.5 648 Z "/>
    <path fill="rgb(53,119,191)" stroke="rgb(53,119,191)" stroke-width="1" opacity="1"
          d="M 601.5 656 L 610 691 L 617 692.5 L 614.5 693 L 610.5 692 L 608 689.5 L 601.5 656 Z "/>
    <path fill="rgb(53,119,191)" stroke="rgb(53,119,191)" stroke-width="1" opacity="1"
          d="M 579.5 659 L 581 666.5 L 580 666.5 L 579.5 659 Z "/>
    <path fill="rgb(53,119,191)" stroke="rgb(53,119,191)" stroke-width="1" opacity="1"
          d="M 253.5 663 L 254 665.5 L 249.5 683 L 249 680.5 L 253.5 663 Z "/>
    <path fill="rgb(53,119,191)" stroke="rgb(53,119,191)" stroke-width="1" opacity="1"
          d="M 275.5 666 L 276 669.5 L 274.5 674 L 274 670.5 L 275.5 666 Z "/>
    <path fill="rgb(53,119,191)" stroke="rgb(53,119,191)" stroke-width="1" opacity="1"
          d="M 582.5 671 L 584 678.5 L 583 678.5 L 582.5 671 Z "/>
    <path fill="rgb(53,119,191)" stroke="rgb(53,119,191)" stroke-width="1" opacity="1"
          d="M 273.5 675 L 274 677.5 L 271.5 687 L 271 683.5 L 273.5 675 Z "/>
    <path fill="rgb(53,119,191)" stroke="rgb(53,119,191)" stroke-width="1" opacity="1"
          d="M 706.5 679 L 706 680.5 L 688.5 709 L 673 705.5 L 677.5 705 L 688.5 708 L 706.5 679 Z "/>
    <path fill="rgb(53,119,191)" stroke="rgb(53,119,191)" stroke-width="1" opacity="1"
          d="M 150.5 680 L 167 708 L 196.5 702 L 196.5 703 L 167.5 709 L 150.5 680 Z "/>
    <path fill="rgb(53,119,191)" stroke="rgb(53,119,191)" stroke-width="1" opacity="1"
          d="M 584.5 680 L 589 701.5 L 588 701.5 Q 587.5 691.5 584 684.5 L 584.5 680 Z "/>
    <path fill="rgb(53,119,191)" stroke="rgb(53,119,191)" stroke-width="1" opacity="1"
          d="M 248.5 684 L 249 687.5 L 248 691 L 230.5 695 L 230.5 694 L 245.5 691 L 247 689.5 L 248.5 684 Z "/>
    <path fill="rgb(53,119,191)" stroke="rgb(53,119,191)" stroke-width="1" opacity="1"
          d="M 270.5 688 L 271 691.5 L 261.5 730 L 261 727.5 L 270.5 688 Z "/>
    <path fill="rgb(53,119,191)" stroke="rgb(53,119,191)" stroke-width="1" opacity="1"
          d="M 618.5 693 L 626 694.5 L 623.5 695 L 618.5 694 L 618.5 693 Z "/>
    <path fill="rgb(53,119,191)" stroke="rgb(53,119,191)" stroke-width="1" opacity="1"
          d="M 224.5 695 L 229 695.5 L 220.5 697 L 220.5 696 L 224.5 695 Z "/>
    <path fill="rgb(53,119,191)" stroke="rgb(53,119,191)" stroke-width="1" opacity="1"
          d="M 627.5 695 L 636 696.5 L 631.5 697 L 627.5 696 L 627.5 695 Z "/>
    <path fill="rgb(53,119,191)" stroke="rgb(53,119,191)" stroke-width="1" opacity="1"
          d="M 216.5 697 L 219 697.5 L 208.5 700 L 208.5 699 L 216.5 697 Z "/>
    <path fill="rgb(53,119,191)" stroke="rgb(53,119,191)" stroke-width="1" opacity="1"
          d="M 364.5 697 L 372 697.5 L 357.5 700 L 357.5 699 L 364.5 697 Z "/>
    <path fill="rgb(53,119,191)" stroke="rgb(53,119,191)" stroke-width="1" opacity="1"
          d="M 375.5 697 L 390.5 698 L 400 701.5 L 397.5 702 L 389.5 699 L 375.5 698 L 375.5 697 Z "/>
    <path fill="rgb(53,119,191)" stroke="rgb(53,119,191)" stroke-width="1" opacity="1"
          d="M 637.5 697 L 649 699.5 L 646.5 700 L 637.5 698 L 637.5 697 Z "/>
    <path fill="rgb(53,119,191)" stroke="rgb(53,119,191)" stroke-width="1" opacity="1"
          d="M 202.5 700 L 206 700.5 L 198.5 702 L 198.5 701 L 202.5 700 Z "/>
    <path fill="rgb(53,119,191)" stroke="rgb(53,119,191)" stroke-width="1" opacity="1"
          d="M 354.5 700 L 356 700.5 Q 340.8 705.8 332 717.5 Q 320.9 729.9 316.5 749 L 316 745.5 Q 323.6 721.1 341.5 707 L 354.5 700 Z "/>
    <path fill="rgb(53,119,191)" stroke="rgb(53,119,191)" stroke-width="1" opacity="1"
          d="M 650.5 700 L 659 701.5 L 654.5 702 L 650.5 701 L 650.5 700 Z "/>
    <path fill="rgb(53,119,191)" stroke="rgb(53,119,191)" stroke-width="1" opacity="1"
          d="M 401.5 702 Q 418.7 708.3 429 721.5 L 436 732.5 L 438 740.5 L 437 740.5 Q 432.9 723.1 420.5 714 Q 413.4 707.1 402.5 704 L 401.5 702 Z "/>
    <path fill="rgb(53,119,191)" stroke="rgb(53,119,191)" stroke-width="1" opacity="1"
          d="M 660.5 702 L 672 704.5 L 668.5 705 L 660.5 703 L 660.5 702 Z "/>
    <path fill="rgb(53,119,191)" stroke="rgb(53,119,191)" stroke-width="1" opacity="1"
          d="M 589.5 703 L 591 709.5 L 590 709.5 L 589.5 703 Z "/>
    <path fill="rgb(53,119,191)" stroke="rgb(53,119,191)" stroke-width="1" opacity="1"
          d="M 591.5 711 L 594 722.5 L 593 722.5 L 591.5 711 Z "/>
    <path fill="rgb(53,119,191)" stroke="rgb(53,119,191)" stroke-width="1" opacity="1"
          d="M 367.5 719 L 371 719.5 Q 357.1 721.6 350 730.5 L 344 738.5 L 339 749.5 L 336 763.5 L 336 777.5 L 337 778.5 L 337 789.5 L 339 794.5 L 340 805.5 L 339 805.5 Q 339 796 336 789.5 L 335 763.5 L 338 749.5 L 343 738.5 L 354.5 725 L 367.5 719 Z "/>
    <path fill="rgb(53,119,191)" stroke="rgb(53,119,191)" stroke-width="1" opacity="1"
          d="M 377.5 719 Q 401.1 720.9 412 735.5 L 418 747.5 L 418 914 Q 388.8 909.4 373 890.5 L 362 874.5 L 364 875.5 Q 371.1 889.9 383.5 899 Q 396.5 910.3 417 913 L 417 747.5 Q 413.9 737.1 406.5 731 L 395.5 724 L 386.5 721 L 377.5 720 L 377.5 719 Z "/>
    <path fill="rgb(53,119,191)" stroke="rgb(53,119,191)" stroke-width="1" opacity="1"
          d="M 594.5 724 L 596 731.5 L 595 731.5 L 594.5 724 Z "/>
    <path fill="rgb(53,119,191)" stroke="rgb(53,119,191)" stroke-width="1" opacity="1"
          d="M 260.5 731 L 261 735.5 L 259.5 738 L 259 735.5 L 260.5 731 Z "/>
    <path fill="rgb(53,119,191)" stroke="rgb(53,119,191)" stroke-width="1" opacity="1"
          d="M 596.5 733 L 599 744.5 L 598 744.5 L 596.5 733 Z "/>
    <path fill="rgb(53,119,191)" stroke="rgb(53,119,191)" stroke-width="1" opacity="1"
          d="M 258.5 740 L 259 743.5 L 256.5 752 L 256 749.5 L 258.5 740 Z "/>
    <path fill="rgb(53,119,191)" stroke="rgb(53,119,191)" stroke-width="1" opacity="1"
          d="M 439.5 745 L 440 785 L 605.5 785 L 607 783.5 L 604 768.5 L 605 768.5 L 608 783.5 L 607 786 L 440.5 786 L 439 784.5 L 439.5 745 Z "/>
    <path fill="rgb(53,119,191)" stroke="rgb(53,119,191)" stroke-width="1" opacity="1"
          d="M 599.5 746 L 601 752.5 L 600 752.5 L 599.5 746 Z "/>
    <path fill="rgb(53,119,191)" stroke="rgb(53,119,191)" stroke-width="1" opacity="1"
          d="M 315.5 750 L 316 752.5 L 314 761.5 L 314 779.5 L 315 784.5 L 313.5 786 L 250.5 786 Q 247.8 784.8 249 779.5 L 250.5 775 L 251 779.5 L 250 783.5 L 251.5 785 L 314 785 L 313 779.5 L 313 761.5 L 315.5 750 Z "/>
    <path fill="rgb(53,119,191)" stroke="rgb(53,119,191)" stroke-width="1" opacity="1"
          d="M 255.5 753 L 256 757.5 L 254.5 761 L 254 757.5 L 255.5 753 Z "/>
    <path fill="rgb(53,119,191)" stroke="rgb(53,119,191)" stroke-width="1" opacity="1"
          d="M 601.5 755 L 604 766.5 L 603 766.5 L 601.5 755 Z "/>
    <path fill="rgb(53,119,191)" stroke="rgb(53,119,191)" stroke-width="1" opacity="1"
          d="M 253.5 762 L 254 765.5 L 251.5 774 L 251 771.5 L 253.5 762 Z "/>
    <path fill="rgb(53,119,191)" stroke="rgb(53,119,191)" stroke-width="1" opacity="1"
          d="M 340.5 807 L 345 826.5 L 344 826.5 L 340 810.5 L 340.5 807 Z "/>
    <path fill="rgb(53,119,191)" stroke="rgb(53,119,191)" stroke-width="1" opacity="1"
          d="M 440.5 807 L 520.5 807 L 522 808.5 L 520.5 827 L 520 813.5 L 521 809.5 L 519.5 808 L 440 808 L 440 981.5 L 443.5 982 Q 470.5 974.5 486 955.5 L 492.5 946 L 493 947.5 L 475.5 967 L 453.5 980 L 439 983 L 439 808.5 L 440.5 807 Z "/>
    <path fill="rgb(53,119,191)" stroke="rgb(53,119,191)" stroke-width="1" opacity="1"
          d="M 345.5 829 L 347 834.5 L 346 834.5 L 345.5 829 Z "/>
    <path fill="rgb(53,119,191)" stroke="rgb(53,119,191)" stroke-width="1" opacity="1"
          d="M 519.5 829 L 520 836.5 L 518.5 845 L 518 836.5 L 519.5 829 Z "/>
    <path fill="rgb(53,119,191)" stroke="rgb(53,119,191)" stroke-width="1" opacity="1"
          d="M 347.5 836 L 350 843.5 L 349 843.5 L 347.5 836 Z "/>
    <path fill="rgb(53,119,191)" stroke="rgb(53,119,191)" stroke-width="1" opacity="1"
          d="M 350.5 845 L 352 849.5 L 351 849.5 L 350.5 845 Z "/>
    <path fill="rgb(53,119,191)" stroke="rgb(53,119,191)" stroke-width="1" opacity="1"
          d="M 517.5 846 L 518 850.5 L 515.5 863 L 515 858.5 L 517.5 846 Z "/>
    <path fill="rgb(53,119,191)" stroke="rgb(53,119,191)" stroke-width="1" opacity="1"
          d="M 352.5 851 L 362 872.5 L 360 871.5 L 353 855.5 L 352.5 851 Z "/>
    <path fill="rgb(53,119,191)" stroke="rgb(53,119,191)" stroke-width="1" opacity="1"
          d="M 514.5 865 L 515 869.5 L 513.5 875 L 513 869.5 L 514.5 865 Z "/>
    <path fill="rgb(53,119,191)" stroke="rgb(53,119,191)" stroke-width="1" opacity="1"
          d="M 512.5 876 L 513 879.5 L 510.5 890 L 510 886.5 L 512.5 876 Z "/>
    <path fill="rgb(53,119,191)" stroke="rgb(53,119,191)" stroke-width="1" opacity="1"
          d="M 509.5 891 L 510 894.5 L 508.5 899 L 508 895.5 L 509.5 891 Z "/>
    <path fill="rgb(53,119,191)" stroke="rgb(53,119,191)" stroke-width="1" opacity="1"
          d="M 507.5 900 L 508 902.5 L 505.5 911 L 505 908.5 L 507.5 900 Z "/>
    <path fill="rgb(53,119,191)" stroke="rgb(53,119,191)" stroke-width="1" opacity="1"
          d="M 504.5 912 L 505 914.5 L 500 931.5 L 493.5 945 L 493 943.5 L 498 933.5 L 504.5 912 Z "/>
    <path fill="rgb(44,162,254)" stroke="rgb(44,162,254)" stroke-width="1" opacity="1"
          d="M 216.5 13 L 217 93.5 L 216 93.5 L 216.5 13 Z "/>
    <path fill="rgb(44,162,254)" stroke="rgb(44,162,254)" stroke-width="1" opacity="1"
          d="M 82.5 78 L 83.5 80 L 82.5 78 Z "/>
    <path fill="rgb(44,162,254)" stroke="rgb(44,162,254)" stroke-width="1" opacity="1"
          d="M 99.5 92 L 100.5 94 L 99.5 92 Z "/>
    <path fill="rgb(44,162,254)" stroke="rgb(44,162,254)" stroke-width="1" opacity="1"
          d="M 111.5 102 L 112.5 104 L 111.5 102 Z "/>
    <path fill="rgb(44,162,254)" stroke="rgb(44,162,254)" stroke-width="1" opacity="1"
          d="M 123.5 112 L 124.5 114 L 123.5 112 Z "/>
    <path fill="rgb(44,162,254)" stroke="rgb(44,162,254)" stroke-width="1" opacity="1"
          d="M 99.5 593 L 100.5 595 L 99.5 593 Z "/>
    <path fill="rgb(44,162,254)" stroke="rgb(44,162,254)" stroke-width="1" opacity="1"
          d="M 481.5 594 L 484 594.5 L 481.5 595 L 481.5 594 Z "/>
    <path fill="rgb(44,162,254)" stroke="rgb(44,162,254)" stroke-width="1" opacity="1"
          d="M 118.5 625 L 119.5 627 L 118.5 625 Z "/>
    <path fill="rgb(44,162,254)" stroke="rgb(44,162,254)" stroke-width="1" opacity="1"
          d="M 372.5 696 L 376 696.5 L 372.5 697 L 372.5 696 Z "/>
    <path fill="rgb(44,162,254)" stroke="rgb(44,162,254)" stroke-width="1" opacity="1"
          d="M 418.5 711 L 419.5 713 L 418.5 711 Z "/>
    <path fill="rgb(44,162,254)" stroke="rgb(44,162,254)" stroke-width="1" opacity="1"
          d="M 479.5 961 L 478.5 963 L 479.5 961 Z "/>
    <path fill="rgb(0,0,0)" stroke="rgb(0,0,0)" stroke-width="1" opacity="0"
          d="M 0 0 L 151.5 0 L 152 1.5 Q 148.5 5.5 150 14.5 L 171 115 L 160.5 119 L 46.5 24 Q 41.7 18.3 31.5 18 L 24.5 20 L 18 25.5 L 14 35.5 L 13 45.5 L 11 50.5 L 11 55.5 L 6 75.5 L 3 95.5 L 1 100.5 L 1 113.5 L 8.5 123 L 96 162.5 Q 55.7 196.7 33 248.5 L 26 268.5 L 21 288.5 L 19 306.5 L 18 307.5 L 17 344.5 L 18 345.5 L 18 361.5 L 19 362.5 L 21 382.5 L 27 406.5 L 36 430.5 Q 54.4 470.1 84.5 498 Q 107.7 519.8 136.5 536 L 164.5 550 L 210 566.5 L 207.5 568 L 73.5 568 L 68 572.5 L 67 578.5 L 65.5 580 L 0.5 580 L 0 579.5 L 0 0 Z "/>
    <path fill="rgb(0,0,0)" stroke="rgb(0,0,0)" stroke-width="1" opacity="0"
          d="M 231.5 0 L 873 0 L 873 1002 L 452 1001.5 Q 486.1 992.1 505 967.5 Q 513.9 956.4 519 941.5 L 530 904.5 L 539 858.5 L 539 851.5 L 542 835.5 L 542 825.5 L 543 824.5 L 543 812.5 L 544 808 L 607.5 808 L 617.5 805 L 625 798.5 Q 630.3 792.3 630 780.5 L 615 717 L 620.5 717 L 690.5 733 L 697.5 733 L 704 728.5 L 735.5 676 L 760.5 683 L 763.5 685 L 777.5 686 Q 789.9 683.9 795 674.5 L 798 666.5 L 798 656.5 L 796 649 L 799.5 650 L 819.5 650 L 830.5 647 L 835.5 644 L 855 625.5 L 869 605.5 L 869 588.5 Q 864.9 582.2 856.5 580 L 790 580 Q 790.4 571.8 784.5 569 L 782.5 568 L 641.5 568 L 639 566.5 L 684.5 550 L 719.5 532 Q 750.8 513.3 775 487.5 Q 804.3 456.8 820 412.5 L 829 377.5 L 831 352.5 L 832 351.5 L 832 316.5 L 831 315.5 L 830 299.5 L 827 287.5 L 827 282.5 L 815 245.5 Q 794.7 200.3 760.5 169 Q 728.9 139.6 688.5 119 L 650.5 102 L 621.5 92 L 618.5 92 L 615.5 90 L 585.5 82 L 581.5 82 L 577.5 80 L 572.5 80 L 568.5 78 L 547.5 75 L 541.5 73 L 527.5 72 L 521.5 70 L 511.5 70 L 504.5 68 L 469.5 66 L 468.5 65 L 412.5 64 L 411.5 65 L 381.5 65 L 380.5 66 L 355.5 67 L 354.5 68 L 344.5 68 L 337.5 70 L 328.5 70 L 322.5 72 L 307.5 73 L 302.5 75 L 296.5 75 L 263.5 82 L 236.5 90 L 235 88.5 L 235 8.5 L 231.5 0 Z "/>
    <path fill="rgb(0,0,0)" stroke="rgb(0,0,0)" stroke-width="1" opacity="0"
          d="M 0.5 623 L 16.5 640 Q 29.2 652.8 57.5 650 L 59.5 649 Q 62.3 650.3 60 651.5 L 58 663.5 L 63 677.5 L 69.5 684 L 78.5 688 L 86.5 688 L 117.5 677 L 122 677 L 151 726.5 L 155.5 732 L 163.5 734 L 241 717 L 239 731.5 L 237 735.5 L 237 740.5 L 235 744.5 L 230 770.5 L 227 779.5 L 227 788.5 Q 229.8 798.8 237.5 804 L 243.5 807 Q 248.2 805.8 249.5 808 L 318 808 L 326 844.5 L 336 871.5 Q 345.2 893.8 361.5 909 Q 373.2 920.3 388.5 928 L 407.5 935 L 417 936 L 417 995.5 L 421 1001.5 L 0 1002 L 0.5 623 Z "/>
    <path fill="rgb(44,162,255)" stroke="rgb(44,162,255)" stroke-width="1" opacity="1"
          d="M 169.5 7 L 180.5 7 L 188.5 9 L 190.5 9 L 195.5 10 L 197.5 10 Q 207.2 8.3 211.5 12 L 213.5 12 L 216 12.5 L 216 93.5 Q 218.8 95.3 214.5 97 L 189.5 106 L 187 101.5 L 184 81.5 L 180 68.5 L 180 66.5 L 179 57.5 L 177 53.5 L 168 8.5 L 169.5 7 Z "/>
    <path fill="rgb(44,162,255)" stroke="rgb(44,162,255)" stroke-width="1" opacity="1"
          d="M 33 39 L 35.5 39 L 124.5 114 L 142 127 L 140.5 131 L 111.5 149 L 19 106.5 L 33 39 Z "/>
    <path fill="rgb(44,162,255)" stroke="rgb(44,162,255)" stroke-width="1" opacity="1"
          d="M 399.5 87 L 449.5 87 L 450.5 88 L 485.5 89 L 492.5 91 L 513.5 92 L 520.5 94 L 528.5 94 L 533.5 96 L 540.5 96 L 561.5 101 L 566.5 101 L 570.5 103 L 575.5 103 L 615.5 114 L 653.5 128 L 690.5 146 Q 729.7 168.3 759 200.5 L 761 203.5 Q 787.8 232.2 801 274.5 L 808 306.5 L 808 316.5 L 809 317.5 L 809 351.5 L 808 352.5 L 808 363.5 L 803 390.5 L 793 419.5 Q 774.4 461.4 741.5 489 Q 712.8 513.3 676.5 530 L 652.5 540 L 649.5 540 L 628.5 548 L 618.5 550 L 615.5 552 L 611.5 552 L 595.5 557 L 586.5 558 L 582.5 560 L 576.5 560 L 572.5 562 L 559.5 563 L 554.5 565 L 547.5 565 L 541.5 567 L 533.5 567 L 517.5 570 L 505.5 570 L 496.5 572 L 479.5 572 L 478.5 573 L 461.5 573 L 460.5 574 L 388.5 574 L 387.5 573 L 370.5 573 L 369.5 572 L 352.5 572 L 343.5 570 L 331.5 570 L 323.5 568 L 307.5 567 L 301.5 565 L 294.5 565 L 289.5 563 L 283.5 563 L 272.5 560 L 267.5 560 L 263.5 558 L 253.5 557 L 202.5 542 Q 167 529.5 137.5 511 Q 109.5 493.5 88 469.5 Q 75.1 454.9 65 437.5 L 57 421.5 L 49 400.5 L 44 381.5 L 44 375.5 L 42 370.5 L 42 362.5 L 41 361.5 L 41 352.5 L 40 351.5 L 40 318.5 L 41 317.5 L 42 299.5 L 44 295.5 L 44 289.5 Q 47 285.5 47 278.5 Q 52.6 259.1 61 242.5 Q 79.7 207.2 108.5 182 Q 133.5 159.5 164.5 143 L 195.5 128 L 233.5 114 L 269.5 104 L 278.5 103 L 292.5 99 L 303.5 98 L 308.5 96 L 315.5 96 L 321.5 94 L 328.5 94 L 344.5 91 L 355.5 91 L 363.5 89 L 381.5 89 L 382.5 88 L 398.5 88 L 399.5 87 Z M 58 316 L 53 322 L 53 351 L 54 352 L 55 369 L 58 380 L 58 385 L 65 409 L 79 439 L 82 441 L 106 453 L 150 470 L 184 480 L 188 480 L 196 483 L 201 483 L 204 485 Q 210 484 213 487 L 223 488 L 227 490 L 233 490 L 238 492 L 243 492 L 254 495 L 261 495 L 267 497 L 282 498 L 289 500 L 299 500 L 305 502 L 316 502 L 327 504 L 337 504 L 338 505 L 356 505 L 357 506 L 367 506 L 368 507 L 404 507 L 405 508 L 482 507 L 483 506 L 493 506 L 494 505 L 512 505 L 513 504 L 544 502 L 551 500 L 561 500 L 568 498 L 583 497 L 589 495 L 596 495 L 607 492 L 612 492 L 637 487 L 641 485 L 646 485 L 649 483 L 654 483 L 662 480 L 666 480 L 700 470 L 737 456 L 768 441 L 777 426 L 788 397 L 795 363 L 795 349 L 796 348 L 796 323 L 792 316 L 786 316 L 764 326 L 717 341 L 713 341 L 709 343 L 705 343 L 678 350 L 668 351 L 663 353 L 640 356 L 635 358 L 628 358 L 614 361 L 605 361 L 599 363 L 589 363 L 582 365 L 560 366 L 551 368 L 537 368 L 536 369 L 526 369 L 525 370 L 507 370 L 506 371 L 458 372 L 457 373 L 391 373 L 390 372 L 368 372 L 367 371 L 343 371 L 342 370 L 314 369 L 313 368 L 299 368 L 290 366 L 269 365 L 261 363 L 252 363 L 246 361 L 229 360 L 224 358 L 216 358 L 211 356 L 173 350 L 160 346 L 155 346 L 147 343 L 143 343 L 139 341 L 135 341 L 93 328 L 90 326 L 87 326 L 65 316 L 58 316 Z "/>
    <path fill="rgb(44,162,255)" stroke="rgb(44,162,255)" stroke-width="1" opacity="1"
          d="M 295 586 L 304.5 588 L 311.5 588 L 317.5 590 L 319.5 590 L 335.5 591 L 341.5 593 L 343.5 593 L 355.5 593 L 366.5 595 L 370.5 594 L 380.5 596 L 399.5 596 L 400.5 597 L 402.5 597 L 452.5 597 L 453.5 596 L 455.5 597 L 456.5 596 L 468.5 596 L 469.5 595 Q 477 596.5 480.5 594 L 483.5 595 L 484.5 594 L 505.5 593 L 506.5 592 L 508.5 592 L 522.5 591 L 530.5 589 L 532.5 589 L 544.5 588 L 550.5 586 L 562 586 L 564 592.5 L 564 594.5 L 565 602.5 L 567 605.5 Q 566.4 611.6 569 614.5 L 569 616.5 L 570 624.5 L 575 641.5 L 575 646.5 L 577 650.5 Q 577.8 662.2 582 670.5 L 582 675.5 L 584 679.5 L 584 681.5 L 588 702.5 L 591 710.5 L 591 712.5 L 592 719.5 L 594 723.5 L 594 725.5 L 595 733.5 L 599 745.5 L 599 750.5 L 601 753.5 L 601 755.5 L 607 784 L 604.5 785 L 440 785 L 440 745.5 L 438 737.5 L 433 726.5 L 418.5 711 L 397.5 700 L 378.5 696 L 376.5 697 L 372.5 696 L 369.5 697 L 367.5 697 Q 358.9 696.9 353.5 700 L 335 712 L 326 723.5 L 317 741.5 L 313 761.5 L 313 779.5 L 314 782.5 L 313.5 785 L 251.5 785 L 250 781.5 L 255 762.5 L 256 752.5 L 259 744.5 L 259 738.5 L 261 735.5 L 261 730.5 L 263 726.5 L 269 696.5 L 275 675.5 L 278 656.5 L 280 653.5 Q 279.2 647.2 282 644.5 L 282 642.5 L 283 634.5 L 285 631.5 L 286 621.5 L 288 617.5 L 288 612.5 L 293 595.5 L 293 590.5 L 295 586 Z "/>
    <path fill="rgb(44,162,255)" stroke="rgb(44,162,255)" stroke-width="1" opacity="1"
          d="M 99 591 L 268.5 591 L 269 594.5 Q 266.3 597.8 267 604.5 L 265 607.5 L 262 625.5 L 260 629.5 Q 258 649.5 252 665.5 L 252 670.5 L 250 673.5 Q 250.8 679.8 248 682.5 L 248 684.5 Q 248.6 689.6 245.5 691 L 240.5 691 L 237.5 693 L 219.5 696 L 197.5 702 L 195.5 702 L 168.5 708 L 165 704.5 L 165 702.5 L 150 679.5 L 150 677.5 L 111 611.5 L 108 608.5 L 99 591 Z "/>
    <path fill="rgb(44,162,255)" stroke="rgb(44,162,255)" stroke-width="1" opacity="1"
          d="M 588 591 L 758 591.5 L 688.5 708 L 683.5 706 L 663.5 703 L 660.5 701 L 658.5 701 L 649.5 700 L 646.5 698 L 640.5 698 L 637.5 696 L 626.5 695 L 622.5 693 L 610 691 L 606 676.5 L 605 666.5 L 603 663.5 L 600 645.5 L 598 641.5 L 595 622.5 L 593 619.5 L 593 613.5 L 589 601.5 L 588 591 Z "/>
    <path fill="rgb(44,162,255)" stroke="rgb(44,162,255)" stroke-width="1" opacity="1"
          d="M 371.5 719 Q 398.3 720.2 411 735.5 L 417 747.5 L 417 913 Q 385.7 907.6 370 885.5 L 362 873.5 L 356 860.5 L 347 835.5 L 347 831.5 L 345 828.5 L 345 824.5 L 340 806.5 L 339 794.5 L 337 789.5 L 336 763.5 Q 338.5 762 337 756.5 L 342 742.5 L 352.5 728 L 363.5 721 L 371.5 719 Z "/>
    <path fill="rgb(44,162,255)" stroke="rgb(44,162,255)" stroke-width="1" opacity="1"
          d="M 441.5 808 L 519.5 808 L 521 809.5 L 519 825.5 L 520 827.5 L 518 834.5 L 518 844.5 L 516 849.5 L 516 851.5 L 516 856.5 L 514 863.5 L 514 865.5 L 511 885.5 L 509 889.5 L 509 891.5 L 505 911.5 L 503 914.5 L 501 924.5 L 496 938.5 Q 490.9 952.4 480.5 961 L 478 962.5 Q 478.8 964.8 476.5 964 L 472.5 968 L 457.5 977 L 447.5 981 L 440 982 L 440 809.5 L 441.5 808 Z "/>
    <path fill="rgb(233,216,200)" stroke="rgb(233,216,200)" stroke-width="1" opacity="1"
          d="M 67 333 L 108.5 348 L 129.5 353 L 133 355.5 L 130 368.5 L 126 377.5 L 125 386 L 274.5 421 L 277 417.5 L 281 401.5 L 278.5 399 L 275.5 399 L 258.5 392 L 232.5 384 L 224.5 380 L 221.5 380 L 193 370 Q 191.7 366.3 197.5 368 L 203.5 370 L 209.5 370 L 221.5 373 L 229.5 373 L 235.5 375 L 243.5 375 L 259.5 378 L 270.5 378 L 277.5 380 L 312.5 382 L 313.5 383 L 330.5 383 L 331.5 384 L 343.5 384 L 344.5 385 L 372.5 385 L 373.5 386 L 471.5 386 L 472.5 385 L 501.5 385 L 502.5 384 L 514.5 384 L 515.5 383 L 532.5 383 L 533.5 382 L 545.5 382 L 556.5 380 L 568.5 380 L 576.5 378 L 586.5 378 L 603.5 375 L 612.5 375 L 617.5 373 L 625.5 373 L 631.5 371 L 656.5 368 L 655.5 370 L 593.5 392 L 590.5 392 L 573.5 399 L 570.5 399 L 568 401.5 L 573 420 L 579.5 420 L 588.5 417 L 593.5 417 L 597.5 415 L 627.5 409 L 639.5 405 L 665.5 400 L 669.5 398 L 673.5 398 L 724 386 L 724 380.5 L 722 377.5 L 716 355.5 L 719.5 353 L 734.5 350 L 737.5 348 L 763.5 340 L 762.5 342 L 748.5 347 L 738.5 349 L 735.5 351 L 721.5 354 L 717 356.5 L 726 382.5 L 726 385.5 L 722.5 388 L 691.5 394 L 688.5 396 L 683.5 396 L 680.5 398 L 670.5 399 L 666.5 401 L 641.5 406 L 637.5 408 L 632.5 408 L 624.5 411 L 619.5 411 L 615.5 413 L 598.5 416 L 595.5 418 L 590.5 418 L 587.5 420 L 573.5 422 L 570 415.5 L 567 400.5 L 569.5 398 L 581.5 395 L 603.5 386 L 615.5 383 L 623.5 379 L 626.5 379 L 646 371.5 L 640.5 371 Q 638.7 373.8 632.5 372 L 628.5 374 L 619.5 374 L 615.5 376 L 605.5 376 L 590.5 379 L 578.5 379 L 572.5 381 L 559.5 381 L 558.5 382 L 538.5 383 L 537.5 384 L 520.5 384 L 510.5 386 L 480.5 386 L 479.5 387 L 464.5 387 L 463.5 388 L 381.5 388 L 380.5 387 L 365.5 387 L 364.5 386 L 335.5 386 L 324.5 384 L 308.5 384 L 307.5 383 L 296.5 383 L 286.5 381 L 274.5 381 L 267.5 379 L 256.5 379 L 255.5 378 L 248.5 378 L 241.5 376 L 232.5 376 L 228.5 374 L 219.5 374 L 215.5 372 L 203.5 371 L 204.5 373 L 207.5 373 L 259.5 392 L 274.5 396 L 282 400.5 L 282 405.5 Q 279.2 407.2 280 412.5 L 278 414.5 Q 278.8 420.3 275.5 422 L 262.5 420 L 250.5 416 L 233.5 413 L 229.5 411 L 224.5 411 L 216.5 408 L 211.5 408 L 207.5 406 L 203.5 406 L 178.5 399 L 169.5 398 L 165.5 396 L 160.5 396 L 157.5 394 L 148.5 393 L 144.5 391 L 139.5 391 L 135.5 389 L 124 387 L 123 382.5 L 125 379.5 L 132 356.5 L 128.5 354 L 113.5 351 L 68 335 L 68 352.5 L 70 359.5 L 70 367.5 L 76 395.5 L 78 397.5 L 78 400.5 L 84 415.5 L 92.5 430 L 117.5 442 L 127.5 445 L 129.5 447 L 132.5 447 L 164.5 459 L 171.5 460 L 174.5 462 L 178.5 462 L 192.5 467 L 197.5 467 L 199.5 469 L 210.5 470 L 214.5 472 L 219.5 472 L 223.5 474 L 228.5 474 L 238.5 477 L 244.5 477 L 248.5 479 L 262.5 480 L 267.5 482 L 275.5 482 L 279.5 484 L 289.5 484 L 296.5 486 L 317.5 487 L 323.5 489 L 339.5 489 L 340.5 490 L 368.5 491 L 369.5 492 L 434.5 493 L 435.5 492 L 478.5 492 L 479.5 491 L 493.5 491 L 494.5 490 L 506.5 490 L 507.5 489 L 523.5 489 L 529.5 487 L 541.5 487 L 557.5 484 L 567.5 484 L 571.5 482 L 579.5 482 L 584.5 480 L 598.5 479 L 602.5 477 L 608.5 477 L 618.5 474 L 624.5 474 L 627.5 472 Q 634.2 473.2 636.5 470 L 647.5 469 L 650.5 467 L 665.5 464 L 704.5 452 L 741.5 437 L 758 427.5 L 767 408.5 L 770 396.5 L 772 393.5 L 772 389.5 L 774 386.5 L 775 376.5 L 777 371.5 L 777 362.5 L 779 357.5 L 779 336 L 765.5 340 L 765.5 339 L 779.5 334 Q 782 335 781 339.5 L 780 340.5 L 780 359.5 L 778 365.5 L 778 373.5 Q 774.9 378.9 775 387.5 L 766 414.5 L 756.5 431 L 731.5 443 L 684.5 460 L 643.5 471 L 615.5 476 L 610.5 478 L 604.5 478 L 599.5 480 L 587.5 481 L 581.5 483 L 573.5 483 L 568.5 485 L 545.5 487 L 544.5 488 L 533.5 488 L 525.5 490 L 512.5 490 L 511.5 491 L 500.5 491 L 499.5 492 L 459.5 493 L 458.5 494 L 390.5 494 L 389.5 493 L 364.5 493 L 363.5 492 L 347.5 492 L 346.5 491 L 335.5 491 L 334.5 490 L 321.5 490 L 313.5 488 L 302.5 488 L 294.5 486 L 278.5 485 L 273.5 483 L 265.5 483 L 259.5 481 L 247.5 480 L 242.5 478 L 236.5 478 Q 230.8 474.7 221.5 475 L 217.5 473 L 212.5 473 L 195.5 468 L 191.5 468 L 188.5 466 L 180.5 465 L 142.5 453 L 105.5 438 L 89 428.5 L 77 401.5 L 70 376.5 L 70 370.5 L 67 355.5 L 67 333 Z "/>
    <path fill="rgb(233,216,200)" stroke="rgb(233,216,200)" stroke-width="1" opacity="1"
          d="M 202.5 408 L 206.5 408 L 209.5 410 L 218.5 411 L 221.5 413 L 226.5 413 L 229.5 415 L 238.5 416 L 242.5 418 L 246.5 418 L 261 422 Q 262.9 424.7 262 431.5 Q 259 444.5 249.5 451 L 236.5 457 L 220.5 457 L 207.5 451 L 199 442.5 Q 194.5 436 194 425.5 L 196 417.5 L 202.5 408 Z M 204 409 L 200 413 L 196 424 Q 195 439 203 446 Q 210 454 224 456 L 234 456 L 249 450 Q 259 444 261 430 L 260 423 L 204 409 Z "/>
    <path fill="rgb(233,216,200)" stroke="rgb(233,216,200)" stroke-width="1" opacity="1"
          d="M 643.5 408 Q 649.3 407.3 650 411.5 L 654 419.5 L 654 434.5 Q 651.5 443 645.5 448 Q 639 454.5 628.5 457 L 613.5 457 Q 600.4 453.6 593 444.5 Q 586.4 438.1 587 424.5 L 588 422 L 615.5 415 L 619.5 415 L 623.5 413 L 627.5 413 L 635.5 410 L 639.5 410 L 643.5 408 Z M 645 409 L 642 411 L 633 412 L 629 414 L 625 414 L 621 416 L 617 416 L 609 419 L 605 419 L 601 421 L 589 423 L 588 427 L 589 435 L 593 443 Q 601 453 616 456 L 627 456 L 634 454 L 643 449 Q 650 443 653 434 L 653 421 L 650 414 L 645 409 Z "/>
    <path fill="rgb(233,216,200)" stroke="rgb(233,216,200)" stroke-width="1" opacity="1"
          d="M 0 594 L 73.5 594 L 76 596.5 L 94 628.5 L 89.5 631 L 74.5 633 L 69.5 635 L 36.5 636 Q 23.8 631.2 16 621.5 L 0 600.5 L 0 594 Z M 1 595 L 2 602 L 17 620 Q 16 622 19 621 L 21 625 L 34 634 L 39 635 L 68 634 L 72 632 L 79 632 L 83 630 L 92 629 L 92 627 L 75 598 L 73 595 L 1 595 Z "/>
    <path fill="rgb(233,216,200)" stroke="rgb(233,216,200)" stroke-width="1" opacity="1"
          d="M 783.5 594 L 855.5 594 L 857 595.5 L 856 601.5 L 840 623 L 824.5 635 L 820.5 636 L 796.5 636 L 768.5 631 L 763 628.5 Q 771.6 609.6 783.5 594 Z M 783 595 L 764 629 L 800 635 L 819 635 L 824 634 L 834 627 L 852 606 L 856 597 L 855 595 L 783 595 Z "/>
    <path fill="rgb(233,216,200)" stroke="rgb(233,216,200)" stroke-width="1" opacity="1"
          d="M 100.5 644 L 104 645 L 114 662.5 L 111.5 665 Q 106.9 664.4 105.5 667 L 92.5 670 L 89.5 672 L 81.5 673 L 74 668.5 Q 71 665.5 72 658.5 L 77.5 652 L 100.5 644 Z M 101 645 L 79 653 L 73 660 Q 72 665 75 668 L 80 671 L 89 671 L 112 663 L 103 646 L 101 645 Z "/>
    <path fill="rgb(233,216,200)" stroke="rgb(233,216,200)" stroke-width="1" opacity="1"
          d="M 754.5 644 L 775.5 650 L 783 655.5 Q 785.7 657.8 785 663.5 L 778.5 672 L 771.5 673 L 743 664 L 744 659.5 L 754.5 644 Z M 756 645 L 745 661 L 745 663 L 762 669 L 766 669 L 768 671 Q 778 673 781 669 L 784 664 Q 785 658 782 657 L 777 652 L 759 647 L 756 645 Z "/>
    <path fill="rgb(255,245,219)" stroke="rgb(255,245,219)" stroke-width="1" opacity="1"
          d="M 68 335 L 113.5 351 L 128.5 354 L 132 356.5 L 123 384.5 L 124 387 L 139 390.5 L 135.5 391 L 129.5 389 L 124.5 389 L 121 385.5 L 130 357.5 L 127.5 355 L 117.5 354 L 109.5 350 L 95.5 347 L 93.5 345 L 87.5 344 L 83.5 341 L 77.5 340 L 69 336 L 69 349.5 L 71 352.5 L 72 373.5 L 74 376.5 L 76 390.5 L 75 390.5 L 73 383.5 L 73 378.5 L 71 374.5 L 70 359.5 L 68 352.5 L 68 335 Z "/>
    <path fill="rgb(255,245,219)" stroke="rgb(255,245,219)" stroke-width="1" opacity="1"
          d="M 776.5 336 L 779 336.5 L 779 357.5 L 777 362.5 L 777 371.5 L 775 376.5 L 774 386.5 L 772 389.5 L 772 393.5 L 765 413.5 L 755.5 430 L 730.5 442 L 708.5 450 L 709.5 448 L 721.5 444 L 723.5 442 L 729.5 441 L 735.5 437 L 742 436 Q 740.8 433 744.5 434 L 757 426.5 L 765 410.5 Q 765.5 403 769 398.5 L 769 394.5 L 771 391.5 L 771 387.5 L 773 385.5 L 774 372.5 L 776 369.5 L 778 337.5 L 776.5 338 L 766.5 341 L 764.5 343 L 755.5 345 L 753.5 347 Q 740.5 349 730.5 354 L 722.5 355 L 719 357.5 L 724 371.5 L 724 375.5 L 726 377.5 L 728 384.5 L 725.5 389 L 710.5 391 L 710.5 390 L 722.5 388 L 726 385.5 L 726 382.5 L 717 356.5 L 721.5 354 L 757.5 344 L 764.5 340 L 767.5 340 L 776.5 336 Z "/>
    <path fill="rgb(255,245,219)" stroke="rgb(255,245,219)" stroke-width="1" opacity="1"
          d="M 203.5 371 L 215.5 372 L 219.5 374 L 228.5 374 L 232.5 376 L 241.5 376 L 248.5 378 L 255.5 378 L 256.5 379 L 267.5 379 L 274.5 381 L 286.5 381 L 287.5 382 L 307.5 383 L 308.5 384 L 324.5 384 L 335.5 386 L 364.5 386 L 365.5 387 L 380.5 387 L 381.5 388 L 463.5 388 L 464.5 387 L 479.5 387 L 480.5 386 L 510.5 386 L 520.5 384 L 537.5 384 L 538.5 383 L 549.5 383 L 559.5 381 L 572.5 381 L 578.5 379 L 590.5 379 L 605.5 376 L 615.5 376 L 619.5 374 L 628.5 374 L 632.5 372 L 645.5 371 L 644.5 373 L 641.5 373 L 581.5 395 L 569.5 398 L 567 400.5 L 570 415.5 L 573.5 422 L 587.5 420 L 598.5 416 L 615.5 413 L 619.5 411 L 624.5 411 L 632.5 408 L 637.5 408 L 641.5 406 L 658.5 403 L 670.5 399 L 680.5 398 L 683.5 396 L 688.5 396 L 691.5 394 L 706.5 391 L 705.5 393 L 690.5 396 L 687.5 398 L 670.5 400 L 668.5 402 Q 662.8 400.8 661.5 404 L 655.5 404 L 653.5 406 L 647 406.5 L 649 407 L 655 418.5 L 656 429.5 L 653 440.5 L 645.5 450 L 640.5 454 Q 638.2 456.7 632.5 456 L 630.5 458 L 610.5 458 L 608.5 456 L 601.5 454 L 591 444.5 L 587 437.5 L 586 422.5 L 586.5 421 L 581.5 423 L 572.5 424 L 569 417.5 L 569 412.5 L 567 410.5 L 565 399.5 L 567.5 397 L 581.5 394 L 593.5 388 L 605.5 385 L 607.5 383 L 614.5 382 L 621.5 378 L 629.5 377 L 631 375.5 L 620.5 375 L 616.5 377 L 607.5 377 L 603.5 379 Q 593.6 377.6 588.5 381 L 561.5 382 L 553.5 384 L 541.5 384 L 537.5 386 L 483.5 387 L 480.5 389 L 364.5 389 L 362.5 387 L 308.5 386 L 304.5 384 L 258.5 381 L 253.5 379 L 243.5 379 L 239.5 377 L 230.5 377 Q 227.6 373.4 219.5 375 L 220.5 377 L 241.5 383 L 243.5 385 L 250.5 386 Q 257 390.5 266.5 392 L 268.5 394 L 271.5 394 L 277.5 397 L 281.5 397 L 283 398.5 L 284 402.5 L 283 407.5 L 281 409.5 L 281 413.5 L 279 415.5 L 279 420.5 L 275.5 424 L 262.5 421 L 263 422.5 L 263 434.5 L 259 444 L 257 444 Q 258.5 447.7 255.5 447 L 250 451 Q 251.1 453.7 248.5 453 L 237.5 458 L 218.5 458 L 207.5 453 L 198 443.5 L 193 432.5 L 193 422.5 L 195 415.5 L 201 406 L 195.5 406 L 193.5 404 Q 187.5 405 185.5 402 L 180.5 402 L 178.5 400 L 172.5 400 L 158.5 397 L 144.5 393 L 143 391.5 L 144.5 391 L 148.5 393 L 157.5 394 L 160.5 396 L 165.5 396 L 169.5 398 L 178.5 399 L 182.5 401 L 207.5 406 L 211.5 408 L 216.5 408 L 221.5 411 L 223.5 410 L 246.5 416 L 250.5 416 L 254.5 418 L 258.5 418 L 262.5 420 L 275.5 422 Q 278.8 420.3 278 414.5 L 280 412.5 Q 279.2 407.2 282 405.5 L 282 400.5 L 274.5 396 L 271.5 396 L 245.5 386 L 227.5 381 L 225.5 379 L 204.5 373 L 203.5 371 Z M 632 374 L 632 375 L 635 375 L 632 374 Z M 203 408 L 196 418 L 194 426 Q 195 436 199 443 L 208 451 L 221 457 L 237 457 L 250 451 Q 259 445 262 432 Q 263 425 261 422 L 242 417 Q 238 418 239 415 L 237 416 L 230 415 L 227 413 L 222 413 L 219 411 L 210 410 L 207 408 L 203 408 Z M 644 408 L 615 416 L 612 415 L 611 417 L 588 422 L 587 425 Q 586 438 593 445 Q 600 454 614 457 L 629 457 Q 639 454 646 448 Q 651 443 654 435 L 654 420 L 650 412 Q 649 407 644 408 Z "/>
    <path fill="rgb(255,245,219)" stroke="rgb(255,245,219)" stroke-width="1" opacity="1"
          d="M 76.5 392 L 87 418.5 L 93.5 429 L 140 449.5 L 138.5 450 L 106.5 437 L 90 427.5 L 81 408.5 L 78 397.5 L 76 395.5 L 76.5 392 Z "/>
    <path fill="rgb(255,245,219)" stroke="rgb(255,245,219)" stroke-width="1" opacity="1"
          d="M 141.5 450 L 151.5 452 L 153.5 454 L 162.5 456 L 164.5 458 L 177.5 460 L 180.5 462 L 184.5 462 L 201.5 468 L 212.5 469 L 215.5 471 L 221.5 471 L 223.5 473 L 230.5 473 L 240.5 476 L 247.5 476 L 250.5 478 L 266.5 479 L 270.5 481 Q 278.2 479.8 281.5 483 L 301.5 484 L 307.5 486 L 322.5 486 L 324.5 488 L 344.5 488 L 346 489.5 L 340.5 490 L 339.5 489 L 323.5 489 L 317.5 487 L 296.5 486 L 289.5 484 L 279.5 484 L 275.5 482 L 267.5 482 L 262.5 480 L 248.5 479 L 244.5 477 L 238.5 477 Q 232.8 473.7 223.5 474 L 219.5 472 L 199.5 469 L 197.5 467 L 192.5 467 L 178.5 462 L 174.5 462 L 171.5 460 L 164.5 459 L 161.5 457 L 143.5 452 L 141.5 450 Z "/>
    <path fill="rgb(255,245,219)" stroke="rgb(255,245,219)" stroke-width="1" opacity="1"
          d="M 704.5 450 L 707 450.5 L 684.5 458 L 685.5 456 L 688.5 456 L 690.5 454 L 694.5 454 L 696.5 452 L 704.5 450 Z "/>
    <path fill="rgb(255,245,219)" stroke="rgb(255,245,219)" stroke-width="1" opacity="1"
          d="M 678.5 458 L 683 458.5 L 654.5 467 L 650.5 467 L 647.5 469 L 636.5 470 L 633.5 472 L 627.5 472 L 624.5 474 L 618.5 474 L 608.5 477 L 602.5 477 L 598.5 479 L 591.5 479 L 579.5 482 L 571.5 482 L 567.5 484 L 557.5 484 L 541.5 487 L 529.5 487 L 523.5 489 L 507.5 489 L 502.5 490 L 502.5 489 L 504.5 488 L 522.5 488 L 525.5 486 L 539.5 486 L 554.5 483 L 566.5 483 L 568.5 481 L 577.5 481 L 579.5 479 L 597.5 478 L 599.5 476 L 606.5 476 L 610.5 474 L 623.5 473 L 625.5 471 L 632.5 471 L 634.5 469 L 646.5 468 L 678.5 458 Z "/>
    <path fill="rgb(255,245,219)" stroke="rgb(255,245,219)" stroke-width="1" opacity="1"
          d="M 353.5 490 L 372.5 490 L 373.5 491 L 473.5 491 L 474.5 490 L 493.5 490 L 493.5 491 L 414.5 493 L 413.5 492 L 369.5 492 L 368.5 491 L 353.5 491 L 353.5 490 Z "/>
    <path fill="rgb(255,245,219)" stroke="rgb(255,245,219)" stroke-width="1" opacity="1"
          d="M 1 595 L 72.5 595 L 75 597.5 L 92 626.5 L 92 629 L 82.5 630 L 78.5 632 L 71.5 632 L 67.5 634 L 38.5 635 L 33.5 634 L 21 624.5 L 18.5 621 Q 16.3 621.8 17 619.5 L 2 601.5 L 1 595 Z M 2 596 L 3 601 L 10 610 Q 9 612 12 611 L 18 619 Q 17 621 20 620 L 23 625 L 35 633 Q 39 632 41 634 L 68 633 L 70 631 L 78 631 L 82 629 L 90 628 L 73 598 L 72 596 L 2 596 Z "/>
    <path fill="rgb(255,245,219)" stroke="rgb(255,245,219)" stroke-width="1" opacity="1"
          d="M 783 595 L 854.5 595 L 856 596.5 L 852 605.5 L 833.5 627 L 823.5 634 L 818.5 635 L 799.5 635 L 764 628.5 L 783 595 Z M 784 596 L 771 619 Q 772 622 769 621 Q 770 626 766 628 L 781 631 L 788 631 L 790 633 L 802 633 L 803 634 L 823 633 L 833 626 L 848 608 L 851 606 L 853 598 L 855 598 L 854 596 L 784 596 Z "/>
    <path fill="rgb(255,245,219)" stroke="rgb(255,245,219)" stroke-width="1" opacity="1"
          d="M 100.5 645 L 103 646 L 112 662.5 L 88.5 671 L 79.5 671 L 75 667.5 Q 72.3 665.2 73 659.5 L 78.5 653 L 100.5 645 Z M 100 647 L 84 653 L 80 653 Q 81 656 79 655 L 74 661 L 76 668 L 81 670 L 88 670 L 101 665 Q 105 666 104 663 Q 109 664 110 662 L 102 649 Q 103 646 100 647 Z "/>
    <path fill="rgb(255,245,219)" stroke="rgb(255,245,219)" stroke-width="1" opacity="1"
          d="M 755.5 645 L 758.5 647 L 776.5 652 L 782 656.5 Q 784.8 658.2 784 663.5 L 781 669 Q 777.6 672.7 767.5 671 L 765.5 669 L 761.5 669 L 745 662.5 L 745 660.5 L 755.5 645 Z M 756 647 L 746 662 L 770 670 Q 777 671 780 668 L 783 663 L 781 659 Q 782 656 779 657 L 779 655 L 776 653 L 756 647 Z "/>
    <path fill="rgb(255,246,220)" stroke="rgb(255,246,220)" stroke-width="1" opacity="1"
          d="M 69 336 L 77.5 340 L 83.5 341 L 87.5 344 L 93.5 345 L 95.5 347 L 109.5 350 L 117.5 354 L 127.5 355 L 130 357.5 L 121 385.5 L 124.5 389 L 142.5 391 L 144.5 393 L 158.5 397 L 172.5 400 L 178.5 400 L 180.5 402 L 185.5 402 Q 187.5 405 193.5 404 L 195.5 406 L 201 406 L 195 415.5 L 193 422.5 L 193 432.5 L 198 443.5 L 207.5 453 L 218.5 458 L 237.5 458 L 250 453 Q 248.9 450.3 251.5 451 L 257 447 L 257 444 Q 259.7 445.1 259 442.5 Q 265 436.5 263 422.5 L 262.5 421 L 275.5 424 L 279 420.5 L 279 415.5 L 281 413.5 L 281 409.5 L 283 407.5 L 284 400.5 L 281.5 397 L 277.5 397 Q 274.5 394 268.5 394 L 266.5 392 Q 257 390.5 250.5 386 L 243.5 385 L 241.5 383 L 238.5 383 L 219 375.5 L 227.5 375 L 230.5 377 Q 239.5 375.5 243.5 379 L 253.5 379 L 258.5 381 L 269.5 381 L 270.5 382 L 284.5 382 L 293.5 384 L 304.5 384 L 308.5 386 L 362.5 387 L 364.5 389 L 480.5 389 L 483.5 387 L 537.5 386 L 541.5 384 L 553.5 384 L 561.5 382 L 588.5 381 L 593.5 379 L 603.5 379 L 607.5 377 L 616.5 377 L 620.5 375 L 634.5 374 L 634.5 375 L 631.5 375 L 625.5 378 L 621.5 378 L 614.5 382 L 607.5 383 L 605.5 385 L 593.5 388 L 581.5 394 L 567.5 397 L 565 399.5 L 567 410.5 L 569 412.5 L 569 417.5 L 572.5 424 L 581.5 423 L 586.5 421 L 586 422.5 L 587 437.5 Q 590.6 445.9 597.5 451 L 610.5 458 L 630.5 458 L 632.5 456 Q 638.2 456.7 640.5 454 L 649 446.5 L 655 435.5 L 656 424.5 L 653 413.5 L 649 407 L 647 406.5 L 653.5 406 L 655.5 404 L 661.5 404 L 663.5 402 Q 669.3 403.3 670.5 400 L 687.5 398 L 690.5 396 L 705.5 393 L 707.5 391 L 725.5 389 L 727 387.5 L 728 384.5 L 726 377.5 L 724 375.5 L 724 371.5 L 719 357.5 L 722.5 355 L 730.5 354 Q 740.5 349 753.5 347 L 755.5 345 L 764.5 343 L 766.5 341 L 777.5 337 L 778 347.5 L 777 348.5 L 776 369.5 L 774 372.5 L 773 385.5 L 771 387.5 L 771 391.5 L 769 394.5 L 769 398.5 L 763 415.5 L 754.5 429 L 742 434 Q 743.3 437.3 738.5 436 L 729.5 441 L 723.5 442 L 721.5 444 L 709.5 448 L 707.5 450 L 696.5 452 L 694.5 454 L 690.5 454 L 683.5 458 L 673.5 459 L 646.5 468 L 634.5 469 L 632.5 471 Q 625.3 469.3 623.5 473 L 610.5 474 L 606.5 476 L 599.5 476 L 597.5 478 L 579.5 479 L 577.5 481 L 568.5 481 L 566.5 483 L 554.5 483 L 539.5 486 L 525.5 486 L 522.5 488 L 504.5 488 L 501.5 490 L 474.5 490 L 473.5 491 L 373.5 491 L 372.5 490 L 346.5 490 L 344.5 488 L 324.5 488 L 322.5 486 L 307.5 486 L 301.5 484 L 281.5 483 L 277.5 481 L 250.5 478 L 247.5 476 L 240.5 476 L 236.5 474 L 223.5 473 L 221.5 471 Q 214.8 472.2 212.5 469 L 201.5 468 L 184.5 462 L 180.5 462 L 177.5 460 L 164.5 458 L 162.5 456 L 153.5 454 L 151.5 452 L 140.5 450 L 124.5 442 L 118.5 441 L 112.5 437 L 100.5 433 L 91 426.5 L 76 391.5 L 74 376.5 L 72 373.5 L 71 352.5 L 69 349.5 L 69 336 Z "/>
    <path fill="rgb(255,246,220)" stroke="rgb(255,246,220)" stroke-width="1" opacity="1"
          d="M 236.5 414 L 239 415.5 L 237.5 416 L 236.5 414 Z "/>
    <path fill="rgb(255,246,220)" stroke="rgb(255,246,220)" stroke-width="1" opacity="1"
          d="M 612.5 414 L 614 414.5 L 611.5 416 L 612.5 414 Z "/>
    <path fill="rgb(255,246,220)" stroke="rgb(255,246,220)" stroke-width="1" opacity="1"
          d="M 2 596 L 71.5 596 L 73 597.5 L 90 628 L 81.5 629 L 77.5 631 L 69.5 631 L 67.5 633 L 40.5 634 Q 39.3 631.7 34.5 633 L 23 624.5 L 19.5 620 Q 17.3 620.8 18 618.5 L 12 611 Q 9.3 612.1 10 609.5 L 3 600.5 L 2 596 Z "/>
    <path fill="rgb(255,246,220)" stroke="rgb(255,246,220)" stroke-width="1" opacity="1"
          d="M 784 596 L 853.5 596 L 855 597.5 L 853 598 L 851 606 L 848 607.5 L 832.5 626 L 822.5 633 L 802.5 634 L 801.5 633 L 789.5 633 L 787.5 631 L 780.5 631 L 766 627.5 Q 769.6 625.6 769 621 Q 772 622.3 771 618.5 L 784 596 Z "/>
    <path fill="rgb(255,246,220)" stroke="rgb(255,246,220)" stroke-width="1" opacity="1"
          d="M 99.5 647 Q 102.8 645.9 102 648.5 L 110 661.5 Q 108.6 664.3 104 663 Q 105.3 666.3 100.5 665 L 87.5 670 L 80.5 670 L 76 668 L 74 660.5 L 78.5 655 Q 81.1 655.7 80 653 L 83.5 653 L 99.5 647 Z "/>
    <path fill="rgb(255,246,220)" stroke="rgb(255,246,220)" stroke-width="1" opacity="1"
          d="M 755.5 647 L 775.5 653 L 779 655 L 779 657 Q 781.7 655.9 781 658.5 L 783 662.5 L 779.5 668 Q 776.9 671.4 769.5 670 L 746 661.5 L 755.5 647 Z "/>
    <path fill="rgb(1,32,97)" stroke="rgb(1,32,97)" stroke-width="1" opacity="1"
          d="M 152 0 L 230.5 0 L 233 2.5 L 235 8.5 L 235 88.5 L 236.5 90 L 251.5 85 L 255.5 85 L 281.5 78 L 296.5 75 L 302.5 75 L 307.5 73 L 322.5 72 L 328.5 70 L 337.5 70 L 344.5 68 L 367.5 67 L 368.5 66 L 380.5 66 L 381.5 65 L 432.5 64 L 433.5 65 L 468.5 65 L 469.5 66 L 481.5 66 L 482.5 67 L 504.5 68 L 511.5 70 L 521.5 70 L 527.5 72 L 541.5 73 L 597.5 85 L 642.5 99 L 684.5 117 L 716.5 135 Q 747.9 155.1 773 181.5 Q 803.2 213.3 820 258.5 L 827 282.5 L 827 287.5 L 830 299.5 L 830 307.5 L 832 316.5 L 832 351.5 L 831 352.5 L 831 361.5 L 830 362.5 L 830 369.5 L 829 370.5 L 829 377.5 Q 826.3 380.8 827 387.5 L 822 406.5 L 813 430.5 Q 794.8 470.3 764.5 498 Q 741.3 519.8 712.5 536 L 672.5 555 L 639 566.5 L 641.5 568 L 782.5 568 L 789 573.5 L 790 580 L 856.5 580 Q 864.9 582.2 869 588.5 L 869 605.5 Q 857.1 626.1 839.5 641 L 830.5 647 L 819.5 650 L 799.5 650 L 796 649 L 798 656.5 L 798 666.5 Q 795.7 677.2 787.5 682 L 777.5 686 L 768.5 686 L 735.5 676 L 701.5 731 Q 698.2 734.2 690.5 733 L 620.5 717 L 615 717 L 630 780.5 L 630 786.5 Q 628 797.5 620.5 803 L 615.5 806 L 607.5 808 L 544 808 L 543 812.5 L 541 844.5 L 539 851.5 L 539 858.5 L 537 864.5 L 536 876.5 L 524 927.5 L 517 946.5 L 510 960.5 Q 502 973 490.5 982 Q 477 993.5 458.5 1000 L 451.5 1002 L 421.5 1002 L 417 995.5 L 417 936 L 400.5 933 L 384.5 926 Q 369.4 917.6 358 905.5 L 343 885.5 L 333 864.5 L 323 833.5 L 318 808 L 249.5 808 Q 248.2 805.8 243.5 807 L 237.5 804 L 231 797.5 L 227 788.5 L 227 779.5 L 230 770.5 L 235 744.5 L 237 740.5 L 237 735.5 L 239 731.5 L 241 717 L 160.5 734 L 153 729.5 L 122 677 L 117.5 677 L 90.5 687 L 78.5 688 Q 68.3 685.3 63 677.5 Q 58.1 670.9 58 659.5 L 61 650.5 L 58.5 649 L 57.5 650 L 38.5 650 L 29.5 648 L 20.5 643 L 2 625.5 L 0 622.5 L 0 603.5 L 2 604.5 Q 10.6 619.4 23.5 630 L 35.5 637 L 62.5 637 L 90.5 632 L 95 629.5 L 93 623.5 L 76 596.5 L 76 594 L 73.5 593 L 0 593 L 0 580.5 L 0.5 580 L 65.5 580 L 67 578.5 L 68 572.5 L 71.5 569 L 73.5 568 L 207.5 568 L 210 566.5 L 164.5 550 L 136.5 536 Q 100.9 516.1 74 487.5 Q 46.5 459 31 418.5 L 25 399.5 L 25 395.5 L 23 391.5 L 20 376.5 L 19 362.5 L 18 361.5 L 18 345.5 L 17 344.5 L 17 324.5 L 18 323.5 L 18 307.5 L 23 279.5 L 31 253.5 L 38 237.5 Q 60 193 96 162.5 L 61.5 146 L 14.5 126 L 8.5 123 L 3 117.5 L 1 113.5 L 1 100.5 L 3 95.5 L 3 90.5 L 6 80.5 L 6 75.5 L 8 70.5 L 8 65.5 L 10 60.5 L 15 31.5 L 21.5 22 L 26.5 19 L 34.5 18 L 46.5 24 L 157.5 117 L 162.5 119 L 171 115 L 158 49.5 L 156 44.5 L 153 25.5 L 151 20.5 L 150 5.5 L 152 0 Z M 171 5 L 168 6 L 167 9 L 186 102 L 189 107 L 217 97 L 218 95 L 218 14 L 217 11 L 207 9 L 199 9 L 198 8 L 190 8 L 189 7 L 171 5 Z M 34 37 L 31 42 L 18 107 L 25 111 L 112 150 L 114 150 L 135 135 L 143 131 L 144 129 L 34 37 Z M 409 86 L 408 87 L 381 87 L 380 88 L 370 88 L 369 89 L 345 90 L 338 92 L 329 92 L 316 95 L 309 95 L 304 97 L 299 97 L 275 102 L 231 114 L 196 127 L 161 144 Q 134 159 112 178 Q 80 205 60 243 L 50 266 L 50 269 L 45 282 L 40 308 L 40 320 L 39 321 L 40 362 L 45 390 L 50 407 Q 58 429 70 448 L 96 480 L 123 502 L 155 522 L 187 537 L 221 549 L 259 559 L 295 566 L 309 567 L 316 569 L 324 569 L 332 571 L 369 573 L 370 574 L 397 574 L 398 575 L 452 575 L 453 574 L 481 574 L 482 573 L 493 573 L 494 572 L 518 571 L 526 569 L 534 569 L 541 567 L 555 566 L 612 554 L 615 552 L 629 549 L 658 539 L 695 522 Q 727 505 753 480 Q 779 454 795 418 L 805 386 L 808 370 L 808 363 L 809 362 L 809 354 L 810 353 L 810 317 L 808 308 L 808 301 L 803 278 L 798 263 Q 782 220 751 192 Q 752 189 749 190 L 749 188 L 719 163 L 689 144 L 654 127 L 613 112 L 580 104 L 576 102 L 571 102 L 567 100 L 562 100 L 541 95 L 534 95 L 521 92 L 512 92 L 505 90 L 494 90 L 493 89 L 470 88 L 469 87 L 409 86 Z M 296 585 L 293 588 L 291 596 L 279 653 L 277 657 L 274 675 L 272 679 L 271 688 L 269 692 L 267 705 L 252 767 L 252 771 L 249 780 Q 248 785 251 786 L 314 786 L 315 785 L 314 780 L 314 762 L 318 743 Q 323 728 332 718 Q 340 708 352 702 L 360 699 L 372 698 L 373 697 L 390 699 L 401 702 L 421 714 Q 434 725 439 745 L 439 785 L 441 786 L 607 786 L 608 784 L 591 711 L 591 707 L 589 703 L 583 672 L 581 668 L 581 663 L 579 659 L 573 628 L 569 615 L 566 597 Q 563 594 564 589 L 562 585 L 552 585 L 531 589 L 507 591 L 506 592 L 494 592 L 484 594 L 469 594 L 458 596 L 400 596 L 399 595 L 383 595 L 382 594 L 366 594 L 356 592 L 344 592 L 327 589 L 319 589 L 296 585 Z M 100 589 L 97 592 L 168 709 L 194 704 L 198 702 L 203 702 L 207 700 L 216 699 L 220 697 L 225 697 L 248 691 L 253 671 L 254 662 L 258 649 L 259 640 L 261 636 L 261 631 L 263 627 L 264 618 L 268 605 L 270 591 L 269 589 L 100 589 Z M 589 589 L 586 592 L 596 633 L 597 642 L 599 646 L 599 651 L 601 655 L 608 690 L 611 692 L 619 694 L 689 709 L 736 632 L 759 593 L 759 591 L 758 589 L 589 589 Z M 783 593 L 763 625 L 762 630 L 767 632 L 772 632 L 777 634 L 794 636 L 795 637 L 822 637 L 833 631 L 852 610 L 858 601 L 858 594 L 856 593 L 783 593 Z M 101 643 L 87 647 L 76 652 L 71 658 Q 70 664 72 668 Q 74 673 81 674 L 91 673 L 100 669 L 112 666 L 115 664 L 106 647 Q 106 642 101 643 Z M 755 643 L 752 644 L 742 662 L 742 665 L 764 671 L 770 674 Q 777 675 781 672 L 786 664 L 785 657 L 776 649 L 755 643 Z M 368 719 L 355 725 L 343 739 L 338 750 L 335 764 L 336 790 L 345 832 L 358 868 Q 364 880 373 891 Q 389 909 418 914 L 418 748 L 412 736 L 400 725 L 388 720 L 368 719 Z M 441 807 L 439 809 L 439 983 L 454 980 L 476 967 L 493 948 L 502 926 L 510 895 L 515 870 L 515 864 L 517 859 L 517 852 L 520 837 L 520 828 L 521 827 L 522 809 L 521 807 L 441 807 Z "/>
    <path fill="rgb(1,32,97)" stroke="rgb(1,32,97)" stroke-width="1" opacity="1"
          d="M 59.5 316 L 64.5 317 L 89.5 328 L 134.5 342 L 142.5 343 L 159.5 348 L 164.5 348 L 177.5 352 L 182.5 352 L 193.5 355 L 199.5 355 L 204.5 357 L 210.5 357 L 223.5 360 L 230.5 360 L 237.5 362 L 252.5 363 L 260.5 365 L 269.5 365 L 278.5 367 L 288.5 367 L 298.5 369 L 311.5 369 L 312.5 370 L 340.5 371 L 341.5 372 L 395.5 373 L 396.5 374 L 450.5 374 L 451.5 373 L 506.5 372 L 507.5 371 L 520.5 371 L 521.5 370 L 550.5 369 L 551.5 368 L 571.5 367 L 572.5 366 L 588.5 365 L 589.5 364 L 596.5 364 L 597.5 363 L 604.5 363 L 605.5 362 L 626.5 360 L 639.5 357 L 645.5 357 L 667.5 352 L 672.5 352 L 677.5 350 L 682.5 350 L 686.5 348 L 695.5 347 L 719.5 340 L 723.5 340 L 726.5 338 L 740.5 335 L 743.5 333 L 763.5 327 L 783.5 318 L 790.5 317 L 794 319.5 L 795 321.5 L 795 351.5 L 794 352.5 L 793 370.5 L 786 399.5 L 776 425.5 L 770 436.5 L 765.5 441 Q 730.5 459.5 689.5 472 L 649.5 483 L 611.5 491 L 606.5 491 L 581.5 496 L 575.5 496 L 568.5 498 L 560.5 498 L 544.5 501 L 533.5 501 L 524.5 503 L 510.5 503 L 509.5 504 L 480.5 505 L 479.5 506 L 405.5 507 L 404.5 506 L 352.5 505 L 351.5 504 L 338.5 504 L 337.5 503 L 324.5 503 L 315.5 501 L 304.5 501 L 303.5 500 L 280.5 498 L 273.5 496 L 248.5 493 L 243.5 491 L 237.5 491 L 232.5 489 L 221.5 488 L 217.5 486 L 212.5 486 L 172.5 476 L 169.5 474 L 159.5 472 L 135.5 464 L 103.5 451 L 83.5 441 L 79 436.5 L 65 405.5 L 59 384.5 L 59 379.5 L 57 375.5 L 55 350.5 L 54 349.5 L 54 321.5 L 57.5 317 L 59.5 316 Z M 66 332 L 66 358 L 68 364 L 68 372 L 71 386 L 78 405 L 78 408 L 88 429 L 92 432 L 110 441 L 145 455 L 148 455 L 151 457 L 177 465 L 181 465 L 212 474 L 232 477 L 236 479 L 242 479 L 253 482 L 260 482 L 266 484 L 279 485 L 286 487 L 295 487 L 302 489 L 312 489 L 322 491 L 332 491 L 333 492 L 348 492 L 349 493 L 359 493 L 360 494 L 385 494 L 386 495 L 463 495 L 464 494 L 489 494 L 490 493 L 500 493 L 501 492 L 515 492 L 516 491 L 535 490 L 536 489 L 546 489 L 553 487 L 561 487 L 576 484 L 582 484 L 588 482 L 595 482 L 645 472 L 656 468 L 682 462 L 685 460 L 712 452 L 727 445 L 730 445 L 759 431 L 770 408 L 777 384 L 777 379 L 780 367 L 780 360 L 781 359 L 782 333 L 780 332 L 767 337 L 765 339 L 762 339 L 760 341 L 753 342 L 750 344 L 723 352 L 719 352 L 715 355 L 716 363 L 723 381 L 723 385 L 661 400 L 652 401 L 635 406 L 631 406 L 627 408 L 610 411 L 598 415 L 589 416 L 585 418 L 574 419 L 570 406 L 570 402 L 597 391 L 609 388 L 660 369 L 663 369 L 664 366 L 656 366 L 632 371 L 625 371 L 620 373 L 603 374 L 596 376 L 587 376 L 577 378 L 568 378 L 567 379 L 555 379 L 547 381 L 531 381 L 530 382 L 520 382 L 519 383 L 498 383 L 497 384 L 465 384 L 464 385 L 382 385 L 381 384 L 327 383 L 316 381 L 300 381 L 292 379 L 280 379 L 279 378 L 262 377 L 261 376 L 252 376 L 245 374 L 229 373 L 211 369 L 205 369 L 193 366 L 186 366 L 186 369 L 190 369 L 207 376 L 210 376 L 280 401 L 275 419 L 252 415 L 240 411 L 223 408 L 219 406 L 215 406 L 198 401 L 189 400 L 177 396 L 172 396 L 126 385 L 130 369 L 134 360 L 134 355 L 131 352 L 116 349 L 94 341 L 90 341 L 83 337 L 70 332 L 66 332 Z "/>
    <path fill="rgb(1,32,97)" stroke="rgb(1,32,97)" stroke-width="1" opacity="1"
          d="M 203.5 411 L 216.5 413 L 239.5 420 L 260 424 Q 259.9 440.5 249.5 448 L 240.5 453 L 233.5 455 L 223.5 455 L 208.5 449 L 201 441.5 L 197 430.5 L 197 424.5 L 199 416.5 L 203.5 411 Z "/>
    <path fill="rgb(1,32,97)" stroke="rgb(1,32,97)" stroke-width="1" opacity="1"
          d="M 641.5 411 Q 647.6 409.8 647 412.5 Q 654 418 652 432.5 Q 648.6 444.1 639.5 450 L 625.5 455 L 616.5 455 Q 604.2 452.8 597 445.5 L 590 434.5 L 590 424 L 641.5 411 Z "/>
    <path fill="rgb(1,32,97)" stroke="rgb(1,32,97)" stroke-width="1" opacity="1"
          d="M 203.5 942 L 204.5 944 L 203.5 942 Z "/>
</svg>